<?xml version="1.0" encoding="UTF-8"?>
<svg id="Layer_2" data-name="Layer 2" xmlns="http://www.w3.org/2000/svg" xmlns:xlink="http://www.w3.org/1999/xlink" viewBox="0 0 4200 928.16">
  <defs>
    <style>
      .cls-1 {
        fill: url(#linear-gradient);
        fill-rule: evenodd;
      }
    </style>
    <linearGradient id="linear-gradient" x1="2100" y1="928.16" x2="2100" y2="0" gradientUnits="userSpaceOnUse">
      <stop offset="0" stop-color="#ffd65c"/>
      <stop offset=".5" stop-color="#e557ad"/>
      <stop offset="1" stop-color="#5f17a6"/>
    </linearGradient>
  </defs>
  <g id="Layer_1-2" data-name="Layer 1">
    <path id="CLOUDS_Compound_Path_" data-name="CLOUDS &amp;lt;Compound Path&amp;gt;" class="cls-1" d="m0,854.07v-255.36c45.68,12.07,60.9,22.68,130.73,27.72,59.43,4.31,81.27,23.1,123.59,35.49,34.34,9.97,185.01,46.72,309.54,72.35-109.62-9.56-365.51-41.26-378.21-40.85-9.03.21,76.44,16.28,264.28,42.74,80.43,11.34,136.6,27.09,194.67,42.1,82.53,21.31,168.73,41.27,333.27,45.05,60.48,1.36,169.78,8.19,163.8,9.66-15.54,3.68-300.09.63-429.24-7.45-293.58-18.48-429.77-27.19-444.36-21.74-22.99,8.51,220.82,39.8,463.47,65.1,190.78,19.85,380.84,35.91,440.27,34.34,14.28-.42,342.51-1.05,321.41,6.2-4.41,1.47-230.69,5.88-255.05,8.5-116.76,12.5-187.64,12.08-243.91,6.61-103.01-9.76-157.5-36.01-355.85-28.88-37.9,1.26-81.9-11.44-190.78-16.69-48.4-2.31-109.72-3.15-189-.63-59.95,1.89-95.13-1.05-124.95-5.67-39.06-5.98-69.09-14.7-133.66-18.59h0ZM1940.4,303.35c15.33,4.83,87.68,2.94,122.64-4.52,11.45-2.41,106.89.11,116.55-10.39,1.47-1.58-47.77-1.26-80.22,3.46-20.79,2.94-28.66-1.57-51.14,2.21-22.68,2.2-59.12,3.99-80.95,6.61-9.24,1.16-40.22-1.47-26.88,2.63h0Zm1410.36-165.9c-62.37,8.51-142.28,40.74-252.63,50.82-69.83,6.4-89.36,15.43-163.59,17.85-3.15.11-169.47,17.85-155.72,24.99,2.52,1.26,53.24-6.51,65.73-5.36,21.73,1.89,211.36-19.21,235.2-24.15,18.9-3.99-8.3,7.88-66.57,14.07-145.32,15.54-182.91,28.98-350.17,30.14-43.89.31-124.53,5.98-199.19,11.02-62.79,4.2-121.38,7.98-150.57,7.66-15.65-.21-22.37.63-22.37,1.89-.21,2.94,39.17,7.66,82.64,1.99,44.31-5.77,123.69-9.24,199.5-11.34,57.22-1.58,112.46-2.41,148.89-2.84,53.65-.73,212.2-24.99,281.61-29.72,15.86-1.05,153.62-20.26,80.54.63-6.51,1.78-45.78,9.76-39.69,10.39,3.04.31,76.97-10.71,99.54-12.18,14.8-1.05,140.28-19,116.23-24.99-6.61-1.68-55.02,2.1-95.03,3.57-19.74.63,33.5-14.28,80.54-17.43,29.82-1.89,54.49-7.14,77.39-13.23,42.21-11.34,78.23-25.94,128.83-28.98,59.64-3.57,69.41-12.7,92.19-19.43,28.35-8.29,62.05-14.38,65.31-19.21-24.36,3.25-66.47,11.55-105.84,19.11-54.39,10.5-102.59,17.11-112.45,17.11-26.04,0-17.43,1.05-40.32-2.41h0Zm-834.23,713.37c-105.21,3.25-211.99,1.89-326.02-6.82-110.35-8.51-294.63-3.68-410.55,3.25-47.46,2.84-171.04-4.51-238.45-4.51-48.2,0-62.89.32-103.01-2.73-42.73-3.25,12.6,8.93,71.09,8.93,87.57,0,263.97.52,339.36,4.62,86.31,4.83,181.75-7.35,262.6,7.25-.31,3.15-161.38,6.72-196.66,6.72-8.72,0-195.61-3.26-112.24,5.98,42.84,4.72,213.78-3.04,294.84,4.31,105.52,9.55,220.5,1.05,281.09,9.55-54.18,5.25-57.75,11.66-133.98,12.5-3.36.1-151.83,4.51-118.96,9.34,30.14,4.51,156.34,2.83,196.87-1.37,42.21-4.31,133.67.32,202.02-4.51,62.06-4.41,143.12-4.41,154.88-5.56,14.8-1.47-56.91-4.1-147.53-9.98-37.48-2.41-65.31-3.15-67.62-5.04-2.52-1.89,23.42-5.25,96.18-13.23,55.86-6.2,139.44-.11,232.05-1.16,54.6-.63,112.25-3.78,169.16-13.34,1.15-.21,112.14-15.01,119.8-15.33,29.5-1.26,208.85-4.83,201.92-7.56-21.84-8.4-160.02,2.42-216.3.32-65.73-2.31-163.27,9.03-224.59,9.03,59.33-14.28,103.85-17.11,168.21-20.16,30.98-1.47,23.94-4.72,72.76-3.99,19.42.21,51.35-6.19,35.81-9.66-9.66-2.2-37.7-3.15-98.49-.63-81.16,3.36-82.74,10.82-137.13,17.11-124.11,14.39-234.57,22.57-367.08,26.67h0ZM677.25,188.69c65.73,11.13,127.78,29.09,213.36,42.73,138.29,21.95,282.14,43.26,422.31,63.63,35.49,5.14,239.61,23.83,242.97,24.67-100.28,6.62-370.44-15.54-462.73-17.22-18.17-.31-165.38-23.1-167.06-22.15-2.84,1.68,72.76,16.17,111.93,19.74,136.82,12.6,254.94,18.38,378.32,29.09,109.93,9.45,175.24,19.11,299.14,21.74,73.29,1.68,102.16,5.15,183.65,5.15,116.86,0,210-.21,221.65-1.47,15.54-1.58-90.3-4.83-248.64-11.76-56.59-2.41-134.92-1.99-178.29-13.55,10.29-.32,252.63,4.2,214.2-1.47-21.52-3.26-50.19-2.1-76.65-4.2-46.41-3.78-94.08-9.66-140.91-11.76-84-3.78-412.23-41.68-505.78-55.12-93.98-13.55-144.06-3.99-243.29-26.46-61.22-13.86-113.09-16.8-191.41-37.38-7.04-1.78-113.51-24.47-109.52-13.86,1.36,3.78,23.62,7.46,36.75,9.66h0Zm3522.75,544.53v30.34c-68.35-2.31-175.35,9.55-217.56,12.07-52.6,3.15-156.97.63-161.07,2.41-10.29,4.2,71.71,8.3,112.03,11.13,75.92,5.46,143.33.73,141.96,3.46-4.62,9.66-457.7,31.29-459.27,24.05-2.1-9.24,231.84-15.85,232.79-20.37,1.89-8.19-85.05-10.4-128.84-8.19-83.27,4.09-102.58,5.04-193.83,5.04-101.32,0-131.35-5.67-216.61-7.77-129.15-3.04-270.06-12.28-339.15-23.41,33.18-8.51,125.16,2.62,206.32-7.66,81.27-10.4,160.55-2.52,239.51,5.14,70.77,6.93,141.23,13.65,212.52,7.04,15.02-1.36,176.51-6.09,190.47-8.71,11.97-2.31-141.96-3.15-146.47-4.52-5.35-1.57,173.78-7.77,179.55-7.98,94.81-2.73,175.88-1.99,270.69-5.88,35.6-1.47,57.96-3.78,76.97-6.19h0Zm0,45.25v11.02c-38.74.11-71.93-.52-73.71-1.05-14.6-4.52,43.36-8.19,73.71-9.98h0Zm0-602.59v66.47c-68.25,12.6-131.56,25.09-191.2,36.75-108.04,21-204.12,39.27-295.99,49.77-177.87,20.26-342.83,50.19-333.8,52.19,4.62,1.05,135.56-18.27,166.53-22.99,119.39-18.48,293.48-36.33,283.92-30.77-8.92,5.15-198.24,33.18-198.76,40.43-1.58,20.37-218.09,53.86-276.05,58.49-208.95,17.01-292.84,26.15-299.77,30.97-6.09,4.41,50.71,10.08,134.4,11.23,58.38.74,129.78-.73,202.02-6.4,223.97-17.53,225.75-7.14,209.27-5.35-36.65,4.1-401.84,20.27-486.15,28.56-109.51,10.81-302.5,11.02-294.31,22.89,7.35,10.6,253.57,9.98,258.09,13.02,8.5,6.09-186.8,2.31-202.55,11.34-40,12.92-81.9,18.48-109.62,19.53-66.89,2.31-174.82-19.42-330.43-20.68-218.82-1.79-384.51-11.97-422.1-17.75,8.61-16.69,303.14,1.15,296.21-4.83-16.91-14.49-239.19-32.34-277.31-36.44-201.18-21.21-184.17-4.1-368.02-21.52-84-7.98-242.02-22.15-194.35-37.06,10.18-3.15,61.32,8.51,173.04,13.44,101.01,4.41,235.31,7.88,365.4,9.03,119.7.95,235.72-.11,318.99-4.2,101.74-5.04,279.72-24.04,290.43-12.91,4.41,4.72-207.16,20.37-201.5,28.98,4.3,6.61,97.02.74,209.06-2.73,71.19-2.1,150.26-3.26,219.34.42,78.86,4.31,318.47-58.59,334.01-67.83,18.8-11.34,55.44-21.31,48.4-25.2-28.66-15.64-189.42,24.99-281.08,31.82-175.46,12.91-231,13.44-233.73,7.14-3.46-7.87,80.75-5.67,189-18.16,70.88-8.19,162.54-32.34,209.9-35.8,134.19-9.77,287.59-55.86,298.72-54.81,28.67,2.52-19.63,11.34-36.02,18.06-54.6,22.89-63.73,31.08-57.75,35.49,14.8,10.92,173.67-14.6,174.3-14.81,54.28-15.85,133.45-26.35,213.57-35.59,122.64-14.28,247.48-25.73,288.96-49.56,26.78-15.44,105.42-37.38,206.95-60.59h0Zm0,109.72v144.59c-42.53,5.78-85.68,10.71-106.99,12.92-63.95,6.93-157.19,20.48-154.45,15.96,4.41-7.24,130.2-38.95,154.03-56.39,58.38-42.84,98.28-59.95,90.51-60.58-10.61-.95-82.32,22.68-193.41,43.89-52.18,10.08-113.19,19.42-180.6,25.52-56.28,5.15-155.3,22.89-163.59,21.84-25.51-3.15,196.56-44.73,201.29-48.19,26.25-19.01,81.48-40.11,171.57-61.01,60.06-13.86,126.21-27.19,181.65-38.53h0ZM0,410.13V0c78.65,33.29,193.31,76.13,297.68,109.73,106.15,34.23,201.28,58.8,172.1,55.96-49.25-4.72-138.39-28.46-209.79-45.36-46.51-11.02-78.64-15.12-111.19-22.57-39.06-8.82,149.62,61.63,347.13,114.87,146.69,39.58,305.65,71.61,325.81,88.09,4.94,12.07-320.56-56.17-428.5-59.22-4.41-.1,26.98,13.44,201.6,47.88,118.76,23.41,168.74,51.03,203.28,66.78,94.5,43.05,448.35,70.14,397.74,76.02-16.17,1.79-144.06,7.46-254.41,5.46-14.18-.21,32.13,15.12,159.81,14.91-47.46,11.13-47.46,23.52,14.59,28.77,78.64,6.72,178.39.31,198.87,5.15,7.66,1.89,149.31,33.81,129.05,35.91-67.83,6.72,191.84,33.71,213.15,40.95,8.19,2.73-317.41-30.97-362.14-24.25-52.19,7.87,123.48,12.49,293.79,32.13,166.43,19.32,374.54,42.21,424.62,46.94,31.29-9.56-252.21-52.19-334.01-68.88-36.64-11.23,142.17,19.85,216.51,29.09,106.68,13.33,88.72-6.93,127.47-2.41,22.68,2.52,83.79,22.36,148.78,40.64,27.09,7.66,119.49,9.24,229.53,19.32,62.37,5.57,229,24.99,281.5,34.97,50.5,9.66,217.04-5.67,277.94,1.26,40,4.62-78.75,3.15-152.25,5.57-77.07,2.52-231.63,8.71-271.32,4.41-46.2-5.04-89.35-12.92-134.71-13.86-130.62-2.83-270.38,6.82-438.69-2.73-104.16-5.88-250.53-38.32-357-43.47-63.1-3.04-288.65-20.58-292.53-11.02-3.78,9.34,80.64,7.56,165.06,20.06,38.01,5.67,68.88,10.6,105.95,28.03,26.77,12.6,159.7,17.33,343.66,33.07,102.37,8.72,149.84,29.5,226.38,34.76,127.26,8.71,158.97,10.92,213.68,26.98,55.55,16.38,449.51,24.15,456.01,32.34,3.67,4.72-245.07,5.56-328.97,7.14-52.92.95-123.9-15.22-155.19-20.89-78.43-14.28-376.01.74-472.19-18.27-14.07-2.73-258.3-22.26-315.52-21.84-43.58.31,99.54,18.69,208,28.66,39.8,5.15,13.75,11.65-129.15,8.61-62.16-1.26-141.64-5.14-233.41-1.37-81.27,3.36-172.52-4.3-222.08-12.49-183.96-30.45-392.49-40.64-405.3-44.84-69.82-22.68,266.18,12.81,460.53,8.92,154.45-3.15-296.1-16.17-279.09-36.54,7.24-8.72,84.42,7.98,265.02,4.73,101.43-1.79,290.95,6.61,199.5-6.2-83.89-11.76-441.42-44.31-521.53-41.06-73.5,2.94-206.32-20.79-383.36-28.24,39.38,11.13,302.72,50.19,284.45,56.28-15.44,5.15-87.15,12.71-155.51-10.71-74.97-25.73-108.26-18.38-162.75-31.81-85.05-20.9-332.43-34.86-320.99-54.08,3.26-5.46,89.46,7.66,177.03,3.89,48.93-2.1,189,24.26,201.81,16.69,11.13-6.61-173.14-23.63-180.28-36.86-6.82-12.81,91.24,8.61,237.93,18.06,75.7,4.83,155.4.84,259.14-.94,42.42-.73,223.86,35.38,298.31,25.41,15.96-2.1-47.04-3.15-158.76-31.08-71.82-17.85-198.14-39.9-279.41-42.32-117.6-3.67-182.8,12.71-294.31-.42-64.99-7.56-128.62-27.72-274.26-51.14-35.39-8.92,2.1-9.66,100.8,5.46,70.45,10.81,148.26,5.67,163.38,1.68,12.28-3.26-57.33-33.7-130.73-47.14-46.2-8.51-75.6,1.36-144.9-7.14-49.14-6.09-93.35-11.45-133.35-16.27h0Z"/>
  </g>
</svg>