<?xml version="1.0" encoding="UTF-8"?>
<svg id="Layer_2" data-name="Layer 2" xmlns="http://www.w3.org/2000/svg" xmlns:xlink="http://www.w3.org/1999/xlink" viewBox="0 0 4202.52 2946.51">
  <defs>
    <style>
      .cls-1 {
        fill: url(#linear-gradient-4);
      }

      .cls-1, .cls-2, .cls-3 {
        fill-rule: evenodd;
      }

      .cls-2 {
        fill: url(#linear-gradient-2);
      }

      .cls-4 {
        fill: none;
      }

      .cls-5 {
        fill: url(#linear-gradient);
      }

      .cls-3 {
        fill: url(#linear-gradient-3);
      }
    </style>
    <linearGradient id="linear-gradient" x1="2102.52" y1="2946.51" x2="2102.52" y2="1615.32" gradientUnits="userSpaceOnUse">
      <stop offset="0" stop-color="#231687"/>
      <stop offset=".5" stop-color="#2e6ec7"/>
      <stop offset="1" stop-color="#ff7f78"/>
    </linearGradient>
    <linearGradient id="linear-gradient-2" x1="1656.59" y1="2520.52" x2="1656.59" y2="1615.32" gradientUnits="userSpaceOnUse">
      <stop offset="0" stop-color="#283ca3"/>
      <stop offset=".25" stop-color="#2c61bd"/>
      <stop offset="1" stop-color="#f27981"/>
    </linearGradient>
    <linearGradient id="linear-gradient-3" x1="1052.31" y1="2471.8" x2="1052.31" y2="1762.53" gradientUnits="userSpaceOnUse">
      <stop offset="0" stop-color="#14409e"/>
      <stop offset=".56" stop-color="#2e53a4"/>
      <stop offset="1" stop-color="#996485"/>
    </linearGradient>
    <linearGradient id="linear-gradient-4" x1="2102.52" y1="2594.13" x2="2102.52" y2="1615.32" gradientUnits="userSpaceOnUse">
      <stop offset="0" stop-color="#6d84e3"/>
      <stop offset=".5" stop-color="#d18ca4"/>
      <stop offset="1" stop-color="#ffa87f"/>
    </linearGradient>
  </defs>
  <g id="Layer_1-2" data-name="Layer 1">
    <g id="LAKE_Group_" data-name="LAKE &amp;lt;Group&amp;gt;">
      <rect class="cls-5" x="2.52" y="1615.32" width="4200" height="1331.19"/>
      <path class="cls-2" d="m3310.65,1615.32H2.52v905.2c13.65-5.25,29.3-7.46,41.06-15.86,19.95-14.07,18.8-27.3,36.54-38.95,22.89-15.12,108.68-6.72,110.14-19,2.31-18.38-50.19,3.89-47.14-15.75,1.36-8.5,55.97-1.36,69.19-2.31,21.42-1.47,41.27-9.56,59.11-21,16.59-10.71,19.01-34.34,33.28-47.67,11.76-10.82,23.62-26.77,39.9-24.99,15.54,1.68,28.03,13.44,41.58,14.39,27.3,1.99,71.72-14.7,72.87-26.88,1.05-11.66-68.04-2.94-68.46-14.8-.31-11.97,55.86-1.37,86.41-18.27,18.8-10.5,44.52-7.04,64.78,0,18.06,6.19,25.31,28.98,42.63,37.06,8.93,4.1,20.27-6.93,29.61-3.57,10.6,3.89,13.23,19.74,24.05,22.99,15.43,4.41,34.65,6.41,48.19-1.78,14.07-8.61,29.4-21.21,30.66-37.69.94-12.08-24.36-5.98-25.41-13.23-1.99-13.44,90.93-2.31,88.72-18.38-1.05-7.66-45.26-6.61-42.21-13.55,3.05-6.82,53.34-21.73,59.33-26.56,21.63-17.64,42.94-38.95,70.45-45.88,11.44-2.94,16.06,18.9,27.72,21.1,15.33,2.94,100.38-24.15,108.47-10.81,9.56,15.75-34.65,11.76-34.33,23.2.42,18.8,77.59-1.89,75.49,13.34-2.31,15.85-96.07,9.56-97.86,19.85-3.15,18.06,66.05,1.47,105.63,21.52,13.23,6.62,31.4-6.61,44.52,0,20.79,10.5,36.64,29.09,49.98,47.67,10.08,13.97,8.72,33.5,18.48,47.67,4.62,6.51,16.91,4.62,22.26,10.61,7.03,7.77,4.41,21.94,13.02,28.14,12.28,9.14,28.87,13.13,44.41,14.17,12.07.84,23.1-8.5,35.18-8.82,10.18-.31,22.47.21,29.61,7.04,14.07,13.44,14.07,37.7,29.72,49.46,10.6,7.98,28.77-2.73,40.74,3.47,9.45,4.93,6.82,22.15,16.59,26.46,16.91,7.45,37.17,8.08,55.55,5.35,38.11-5.67,80.43-7.98,111.19-30.03,43.15-31.08,61.01-85.99,99.96-121.8,12.18-11.03,34.02-5.46,48.19-14.07,14.7-9.03,20.48-28.03,35.18-37.07,14.18-8.72,33.92-5.56,48.2-14.07,8.71-5.25,13.33-15.54,16.59-24.78,3.68-10.08-3.68-23.73,3.78-31.71,9.14-9.98,25.41-11.13,38.85-14.17,7.88-1.68,16.38,2.2,24.05,0,15.65-4.41,32.45-8.92,44.52-19.43,9.03-7.77,7.35-22.57,14.8-31.71,8.4-10.18,83.37-25.62,84.95-44.2,1.68-19.64-51.45-1.68-50.5-21.53.94-17.43,152.67-12.7,151.93-28.45-.53-9.87-82.01,3.36-80.96-13.97.53-7.45,34.23-.95,53.87-20.68,11.97-11.97,33.81-8.61,48.09-17.64,17.22-10.81,26.88-30.66,44.52-40.64,13.65-7.66,30.45-9.77,46.31-10.5,18.58-1.05,37.06,7.14,55.54,5.25,22.37-2.31,42.32-18.69,64.79-17.64,19.64.84,34.33,20.16,53.76,22.89,23.21,3.36,49.46,5.04,70.35-5.25,19.53-9.66,24.68-35.18,40.74-49.46,10.29-9.13,25.62-11.55,37.06-19.32,16.38-11.13,27.72-29.61,46.31-37.07,19.42-7.87,124.74-1.89,125.79-13.75,1.05-10.82-76.86,7.24-77.8-5.57-1.26-18.17,52.5-1.36,66.99-12.92,11.45-9.24,34.23-21.94,60.58-27.72,33.08-7.14,69.3-5.57,70.46.94,2.31,14.28-35.59.63-31.5,14.49,1.37,4.83,49.67,5.46,72.03-2.62,12.07-4.31-12.5-15.02,6.09-19.95,9.66-2.62,52.81-10.08,24.78-20.58-16.49-6.19,20.48-31.71,34.44-41.16,24.15-16.38,52.39-28.45,81.48-33.6,26.25-4.52,54.18,12.7,79.69,5.35,30.66-8.82,50.93-37.69,79.59-51.24,12.28-5.78,29.08,1.57,40.74-5.25l72.24-42.31Zm-887.04,246.43c11.13,0,20.06,1.78,20.06,3.89s-8.93,3.78-20.06,3.78-20.16-1.68-20.16-3.78,9.03-3.89,20.16-3.89h0Zm465.26-91.66c11.13,0,20.16,1.78,20.16,3.88s-9.03,3.78-20.16,3.78-20.06-1.68-20.06-3.78,9.03-3.88,20.06-3.88h0Zm-383.78,107.73c25.52,0,46.31,2.1,46.31,4.73s-20.79,4.83-46.31,4.83-46.3-2.2-46.3-4.83,20.79-4.73,46.3-4.73h0Zm408.34,34.65c25.62,0,46.31,2.21,46.31,4.83s-20.68,4.72-46.31,4.72-46.2-2.1-46.2-4.72,20.68-4.83,46.2-4.83h0Zm-390.28,86.21c25.51,0,46.3,2.1,46.3,4.72s-20.79,4.72-46.3,4.72-46.31-2.1-46.31-4.72,20.79-4.72,46.31-4.72h0Zm299.04-120.22c11.13,0,20.16,1.68,20.16,3.88s-9.03,3.78-20.16,3.78-20.06-1.68-20.06-3.78c0-2.2,9.03-3.88,20.06-3.88h0Zm208.01-110.46c25.51,0,46.2,2.21,46.2,4.83s-20.68,4.73-46.2,4.73-46.31-2.1-46.31-4.73,20.68-4.83,46.31-4.83h0Zm142.06-42.31c11.13,0,20.16,1.68,20.16,3.78s-9.03,3.88-20.16,3.88-20.16-1.79-20.16-3.88,9.03-3.78,20.16-3.78h0Zm-974.19,332.64c25.62,0,46.31,2.21,46.31,4.83s-20.69,4.73-46.31,4.73-46.2-2.1-46.2-4.73,20.69-4.83,46.2-4.83h0Zm-438.48,303.56c11.13,0,20.16,1.68,20.16,3.78s-9.03,3.89-20.16,3.89-20.16-1.78-20.16-3.89,9.03-3.78,20.16-3.78h0Zm993.19-482.06c11.13,0,20.16,1.78,20.16,3.89s-9.03,3.78-20.16,3.78-20.16-1.68-20.16-3.78,9.03-3.89,20.16-3.89h0Zm229.22-70.77c11.13,0,20.16,1.68,20.16,3.78s-9.03,3.78-20.16,3.78-20.16-1.68-20.16-3.78,9.03-3.78,20.16-3.78h0Zm-2302.65,439.74c8.09,0,14.7,1.58,14.7,3.47,0,2-6.61,3.57-14.7,3.57s-14.7-1.57-14.7-3.57c0-1.89,6.61-3.47,14.7-3.47h0Zm1286.78-226.59c25.62,0,46.31,2.2,46.31,4.83s-20.69,4.72-46.31,4.72-46.31-2.1-46.31-4.72,20.79-4.83,46.31-4.83h0Zm-353.75,156.35c11.13,0,20.16,1.68,20.16,3.78s-9.03,3.78-20.16,3.78-20.16-1.68-20.16-3.78,9.03-3.78,20.16-3.78h0Zm95.13,32.65c11.13,0,20.16,1.68,20.16,3.78s-9.03,3.78-20.16,3.78-20.16-1.68-20.16-3.78,9.03-3.78,20.16-3.78h0Zm-327.81,79.17c11.13,0,20.16,2.1,20.16,4.72s-9.03,4.83-20.16,4.83-20.16-2.2-20.16-4.83,9.03-4.72,20.16-4.72h0Zm398.89-112.56c25.62,0,46.31,2.1,46.31,4.83s-20.69,4.73-46.31,4.73-46.2-2.1-46.2-4.73,20.68-4.83,46.2-4.83h0Zm-341.67,88.93c25.52,0,46.31,2.1,46.31,4.73s-20.79,4.83-46.31,4.83-46.3-2.2-46.3-4.83,20.68-4.73,46.3-4.73h0Zm-122.22-24.99c25.52,0,46.2,2.1,46.2,4.72s-20.69,4.83-46.2,4.83-46.3-2.2-46.3-4.83,20.69-4.72,46.3-4.72h0Zm-172.51,20.79c11.13,0,20.16,2.1,20.16,4.83s-9.03,4.72-20.16,4.72-20.16-2.1-20.16-4.72,9.03-4.83,20.16-4.83h0Zm-80.85-66.47c8.09,0,14.7,1.47,14.7,3.47,0,1.89-6.62,3.47-14.7,3.47s-14.7-1.57-14.7-3.47c0-1.99,6.62-3.47,14.7-3.47h0Zm-562.27,143.54c11.13,0,20.06,2.2,20.06,4.83s-8.93,4.73-20.06,4.73-20.16-2.1-20.16-4.73,9.03-4.83,20.16-4.83h0Zm-171.57,57.33c11.13,0,20.16,1.99,20.16,4.51s-9.03,4.52-20.16,4.52-20.16-2-20.16-4.52,9.03-4.51,20.16-4.51h0Zm-100.07,62.48c11.13,0,20.16,1.57,20.16,3.46,0,2-9.03,3.47-20.16,3.47s-20.06-1.47-20.06-3.47c0-1.89,8.93-3.46,20.06-3.46h0Zm554.3-165.59c11.13,0,20.16,2.1,20.16,4.72s-9.03,4.83-20.16,4.83-20.16-2.2-20.16-4.83,9.03-4.72,20.16-4.72h0Zm80.95-16.59c8.09,0,14.7,1.58,14.7,3.57,0,1.89-6.61,3.47-14.7,3.47s-14.7-1.57-14.7-3.47c0-1.99,6.61-3.57,14.7-3.57h0Z"/>
      <path class="cls-3" d="m671.16,2099.9c-21.95,15.33-81.06,11.44-82.85,23.1-.63,4.51,1.36,15.75-2.52,19.32-14.28,13.02-41.58-3.47-59.95,9.87-10.18,7.46-13.12,16.17-30.55,22.26-22.05,7.66-61.53-4.31-62.48,12.5-1.15,18.48,83.48-11.76,81.9,5.57-1.89,19.95-135.14.74-137.55,13.86-2.84,15.75,46.41-3.78,47.25,8.3.84,11.24-26.78,5.98-37.49,13.97-3.68,2.73,3.36,10.71,0,13.86-10.08,9.24-23.73,13.76-36.12,19.42-11.76,5.46-25.83,6.09-36.12,13.86-9.56,7.25-10.81,22.78-20.79,29.19-14.39,9.14-51.35-1.47-48.61,15.33,1.78,11.86,81.9-19.74,81.9,1.37-.1,40.95-168.94-4.41-169.15,19.42-.11,21.42,78.22-13.13,77.49,11.13-.52,19.64-45.99,3.36-44.41,19.42,1.57,16.8,113.3-10.71,113.82,15.33.53,23.94-245.28-22.89-245.17,8.09,0,25.93,87.99-7.77,87.46,16.38-.42,21-121.06-7.66-123.27,15.23-2.2,23.62,76.23-3.57,74.86,12.49-1.47,16.17-64.68,15.96-96.28,13.44v-682.39c568.68-.42,1137.57-16.17,1705.93-1.26l355.53,9.34c-39.9,8.19-42.1,21.42-63.42,26.78-15.33,3.89-26.25-.21-42,0-11.76.21-23.1,4.62-34.76,5.56-17.53,1.37-35.18,1.89-52.81,1.37-17.64-.42-35.18-4.93-52.71-4.09-15.12.63-30.03,4.2-44.52,8.3-8.3,2.41-15.12,9.24-23.62,11.13-19.11,4.2-59.64-3.46-58.27,6.93,1.78,14.91,65.31-4.62,63.84,6.93-1.47,11.23-150.88-11.45-151.41,5.56-.42,14.18,54.39-5.98,54.18,6.93-.21,17.33-50.19,3.57-74.97,6.93-12.5,1.79-23.52,7.67-36.12,8.4-15.01.74-29.5-6.93-44.41-6.93-9.55,0-18.59,4.41-27.82,6.93-11.65,3.04-22.78,8.92-34.76,9.66-9.45.63-28.03,15.54-37.48,16.38-21.74,1.89-39.06-3.47-59.74,3.47-45.78,15.22-115.92,22.47-116.34,10.08-.63-20.79,60.27,3.36,60.16-12.81-.21-19.63-94.29-.21-103.22-5.25-24.57-14.07-27.82-1.36-35.81,2.73-37.48,19.32-84.94-10.81-164.53-7.67l-69.3,26.99,85.26,3.25,238.56,14.28c-15.86,13.02-37.8,9.45-58.07,19.11-10.29,4.93-19.22,6.83-29.09,12.5-4.41,2.42-18.06-7.66-22.57-5.57-12.81,5.99-28.56,3.05-41.68,8.3-4.94,1.99-4.52,11.55-9.77,12.5-24.57,4.52-74.44-11.34-74.97,2.83-.73,18.69,102.16-1.99,104.16,12.5,2.94,20.68-152.36-9.03-154.14,6.93-1.58,13.33,59.32.94,57.22,14.28-1.89,11.76-60.38,11.55-82.32,13.55-14.39,1.26-15.64,7.14-30.14,8.29-10.6.84-20.58,18.58-29.19,12.49-9.35-6.61-46.31-21.94-72.56-9.55-25.41,11.97-91.77-2.42-90.72,16.59,1.05,19.32,72.66-3.99,72.98,9.45.31,14.7-52.29.31-77.81,5.56-15.85,3.26-60.69,0-76.34,3.78-26.35,6.51-53.55,12.28-80.64,11.13-47.25-2.1-93.14-24.25-140.28-20.79-73.6,5.25-146.47,16.69-219.34,29.3l291.69-7.77,196.77,14.39Zm208.21-96.08c5.57,0,9.98.74,9.98,1.68s-4.41,1.68-9.98,1.68-9.87-.73-9.87-1.68,4.41-1.68,9.87-1.68h0Zm793.7-188.68c5.46,0,9.97.74,9.97,1.68,0,.84-4.51,1.57-9.97,1.57s-9.87-.73-9.87-1.57c0-.94,4.41-1.68,9.87-1.68h0Zm-201.39,30.56c5.46,0,9.87.73,9.87,1.68,0,.84-4.41,1.58-9.87,1.58s-9.87-.73-9.87-1.58c0-.95,4.41-1.68,9.87-1.68h0Zm115.29-11.86c5.46,0,9.87.73,9.87,1.68s-4.41,1.68-9.87,1.68-9.87-.73-9.87-1.68,4.41-1.68,9.87-1.68h0Zm-450.03,35.49c5.46,0,9.87.74,9.87,1.57,0,.94-4.41,1.68-9.87,1.68s-9.87-.74-9.87-1.68c0-.84,4.41-1.57,9.87-1.57h0Zm173.67,3.26c5.46,0,9.87.73,9.87,1.68s-4.41,1.68-9.87,1.68-9.98-.74-9.98-1.68,4.41-1.68,9.98-1.68h0Zm123.69-20.69c9.77,0,17.74,1.36,17.74,2.94,0,1.68-7.98,2.94-17.74,2.94s-17.74-1.26-17.74-2.94c0-1.58,7.98-2.94,17.74-2.94h0Zm-743.19,179.23c9.76,0,17.74,1.26,17.74,2.94,0,1.58-7.98,2.94-17.74,2.94s-17.64-1.36-17.64-2.94c0-1.68,7.88-2.94,17.64-2.94h0Zm216.93-45.78c9.76,0,17.74,1.37,17.74,2.94,0,1.68-7.98,2.94-17.74,2.94s-17.64-1.26-17.64-2.94c0-1.57,7.88-2.94,17.64-2.94h0Zm-11.34,102.9c4.83,0,8.82,1.05,8.82,2.42s-3.99,2.41-8.82,2.41-8.72-1.05-8.72-2.41,3.89-2.42,8.72-2.42h0Zm-102.06-11.97c4.83,0,8.72,1.05,8.72,2.41s-3.89,2.42-8.72,2.42-8.82-1.05-8.82-2.42,3.99-2.41,8.82-2.41h0Zm264.28-53.13c9.77,0,17.54,2.2,17.54,4.83s-7.77,4.93-17.54,4.93-17.53-2.2-17.53-4.93,7.88-4.83,17.53-4.83h0Zm84.32-24.68c4.83,0,8.82,1.16,8.82,2.42,0,1.36-3.99,2.42-8.82,2.42s-8.71-1.05-8.71-2.42c0-1.26,3.88-2.42,8.71-2.42h0Zm950.14-211.15c4.83,0,8.71,1.15,8.71,2.41,0,1.36-3.88,2.52-8.71,2.52s-8.82-1.16-8.82-2.52c0-1.26,3.99-2.41,8.82-2.41h0Zm-439.74,95.34c4.83,0,8.72,1.16,8.72,2.41,0,1.37-3.89,2.42-8.72,2.42s-8.82-1.05-8.82-2.42c0-1.26,3.89-2.41,8.82-2.41h0Zm180.49-41.68c4.94,0,8.82,1.16,8.82,2.41,0,1.37-3.89,2.52-8.82,2.52s-8.71-1.15-8.71-2.52c0-1.26,3.88-2.41,8.71-2.41h0Zm-29.09-10.18c4.83,0,8.72,1.05,8.72,2.41s-3.89,2.42-8.72,2.42-8.82-1.05-8.82-2.42,3.99-2.41,8.82-2.41h0Zm-118.34,27.72c9.66,0,17.54,2.2,17.54,4.93s-7.88,4.83-17.54,4.83-17.53-2.21-17.53-4.83,7.88-4.93,17.53-4.93h0Zm-225.85,34.02c9.77,0,17.64,2.2,17.64,4.93s-7.88,4.83-17.64,4.83-17.54-2.2-17.54-4.83,7.88-4.93,17.54-4.93h0Zm-780.15,219.03c8.82,0,15.96,1.79,15.96,3.99s-7.14,3.99-15.96,3.99-15.96-1.78-15.96-3.99,7.14-3.99,15.96-3.99h0Zm-135.45,87.47c8.82,0,15.96,1.89,15.96,4.1s-7.14,3.99-15.96,3.99-15.96-1.78-15.96-3.99,7.14-4.1,15.96-4.1h0Zm-71.51,32.13c8.82,0,15.96,1.79,15.96,3.99s-7.14,3.99-15.96,3.99-15.96-1.78-15.96-3.99,7.14-3.99,15.96-3.99h0Zm-111.09,134.82c14.18,0,25.62,2.84,25.62,6.4s-11.45,6.41-25.62,6.41-25.72-2.84-25.72-6.41,11.44-6.4,25.72-6.4h0Zm-238.24,93.03c14.18,0,25.73,2.83,25.73,6.4s-11.55,6.4-25.73,6.4-25.72-2.83-25.72-6.4,11.55-6.4,25.72-6.4h0Zm213.89-266.18c8.82,0,15.96,1.78,15.96,3.99s-7.14,3.99-15.96,3.99-15.96-1.78-15.96-3.99,7.14-3.99,15.96-3.99h0Zm-180.91,112.67c8.09,0,14.7,1.68,14.7,3.67s-6.61,3.68-14.7,3.68-14.7-1.68-14.7-3.68,6.61-3.67,14.7-3.67h0Zm-109.41,26.56c8.19,0,14.7,1.68,14.7,3.67s-6.51,3.67-14.7,3.67-14.7-1.68-14.7-3.67,6.61-3.67,14.7-3.67h0Zm54.18,12.39c14.17,0,25.72,2.84,25.72,6.41s-11.55,6.4-25.72,6.4-25.73-2.84-25.73-6.4,11.55-6.41,25.73-6.41h0Z"/>
      <path class="cls-1" d="m4202.52,1615.32H2.52v584.74c11.65-1.47,23.2-5.77,34.86-4.2,8.51,1.16,14.39,10.82,22.89,11.76,9.24,1.05,17.85-6.09,27.09-6.19,9.66-.1,33.18-2.94,28.45,5.57-6.72,12.28-44.1,1.26-39.59,14.59,3.26,9.14,84.63,1.99,85.47-6.93.94-10.39-27.93,1.78-29.93-8.4-1.68-9.03,63.63-2.73,62.58-11.76-1.15-9.66-26.88,2.62-28.45-5.57-2.84-13.97,103.22.63,102.8-12.49-.53-12.92-36.96,5.98-38.22-5.57-1.15-10.18,28.45-8.09,43.05-10.39,8.93-1.47,18.48,1.99,27.09-.74,5.88-1.89,7.88-10.71,13.86-12.5,8.93-2.63,18.69,1.68,27.82,0,7.45-1.37,13.44-7.45,20.79-9.03,11.13-2.41,22.68-3.04,34.02-2.83,6.4.21,12.39,4.93,18.8,4.2,9.45-.94,17.64-7.98,27.09-9.03,7.88-.84,15.85,5.25,23.62,3.47,10.5-2.31,17.74-13.75,28.45-15.23,12.91-1.89,29.82-3.99,38.85,5.57,6.2,6.51-26.25-.74-25.62,8.29.32,4.62,16.91,1.68,33.28,1.16,17.01-.52,33.81,1.26,34.02-2.52.52-8.51-25.83.63-24.26-7.66,1.57-8.61,31.19-9.35,47.14-11.76,15.02-2.31,30.35-.63,45.47-2.42,13.97-1.68,27.41-6.93,41.37-8.09,10.18-.84,20.47,3.15,30.55,2.1,5.78-.63,16.9-1.15,16.07-6.93-1.05-5.98-65.73,1.89-64.47-5.88.52-3.47,20.37-2.52,19.95-5.88-.73-6.19-89.04,7.14-132.61.11-51.66-8.4-107.41-15.75-150.05-45.99-20.48-14.49,50.09-3.47,74.86-7.25,11.97-1.78,23.2-7.24,35.18-9.56,5.77-1.05,12.28,1.79,17.74-.53,4.41-1.99,4.41-9.97,9.03-11.13,11.24-2.84,23.31-1.68,34.76,0,5.36.74,9.24,7.45,14.6,6.93,7.66-.73,13.12-9.14,20.79-10.39,14.6-2.52,45.05,6.4,44.52-.74-.73-7.88-48.09,1.89-43.78-11.13,1.68-5.15,55.44,5.67,55.55-2.1.11-5.78-16.9,0-16.69-5.46.31-7.77,14.49-6.09,22.26-7.03,10.29-1.16,21,2.94,31.29.74,5.77-1.26,8.93-8.51,14.49-10.4,5.56-1.89,11.76.42,17.43-.73,11.02-2.1,21.42-8.09,32.65-9.03,8.82-.74,17.95,1.26,26.35,4.2,4.73,1.57,6.93,8.4,11.76,9.03,15.75,1.79,31.5-2.62,47.25-2.1,7.14.21,13.76,4.2,20.9,4.2,9.14,0,17.95-4.51,27.09-4.2,13.96.42,27.72,7.77,41.68,6.3,7.03-.84,10.61-10.29,17.32-12.6,11.76-3.89,37.91,6.83,36.86-5.46-.63-5.99-29.61,5.35-28.56-4.2.42-3.57,23.73-.95,45.05-1.37,19.43-.31,37.06-4.09,36.23,1.37-.63,3.99-23.2-.74-22.15,6.93.73,6.09,28.45-.73,42.32-3.47,7.24-1.47,13.02-7.25,20.16-9.03,9.03-2.2,18.59-.95,27.72-2.83,6.3-1.16,11.86-5.15,18.06-6.2,5.35-.84,10.92-.84,16.06.74,6.82,1.99,12.07,8.93,19.21,9.87,11.02,1.58,22.36-.21,33.18-2.73,10.5-2.41,19.43-9.97,29.93-11.76,9.03-1.57,18.27,2.73,27.41,1.79,16.59-1.68,34.86-1.16,49.24-9.66,5.88-3.57-11.86-7.87-18.69-8.4-10.81-.73-21.21,5.25-32.02,4.83-10.61-.32-20.58-5.67-31.19-6.93-46.2-5.46-92.51-9.66-138.91-13.12-18.16-1.47-37.06,3.47-54.49-1.58-53.55-15.43-154.03,9.98-161.91-45.15-6.82-48.3,102.16-28.77,150.78-32.65,12.28-1.05,24.46,3.15,36.75,4.2,10.39.84,20.89,2.21,31.29,1.37,15.65-1.26,30.87-6.72,46.52-7.67,31.08-2,70.77,5.78,111.83,2.41,93.34-7.66,191.94-18.27,193.09-9.03,1.89,15.75-81.06-4.1-79.9,10.39,1.16,13.23,91.35-3.78,126.1-2.42,7.03.32,15.65-1.99,22.57-3.47,11.03-2.41,19.64-11.66,30.56-14.6,11.44-2.94,23.62-4.3,35.38-2.73,14.7,2,27.72,11.24,42.42,13.23,9.03,1.16,17.95-3.26,27.09-4.2,23.52-2.52,103.11,5.98,103.85-3.15.63-8.71-57.75,0-58.7-8.71-1.05-8.3,96.28-4.2,144.48-4.83,9.77-.1,19.32,3.25,29.09,2.84,22.16-1.16,43.89-6.51,66.05-7.67,9.45-.52,18.9,3.47,28.45,2.73,8.4-.63,15.86-6.3,24.26-6.93,24.78-1.68,49.77,2.73,74.34,0,15.12-1.68,22.99-7.04,38.22-7.24,17.64-.42,41.16,4.2,40.95-1.79-.42-14.7-33.39-4.31-47.88-6.93-6.83-1.26-27.09-6.2-34.02-6.3-43.36-.21-62.9-11.44-105.94-8.5-32.97,2.2-66.15,8.4-99.02,4.41l-763.88-92.93-223.23-43.47,1040.65,5.77-380.62,23.63h1089.06l-595.98-22.26,1450.26-5.56-765.45,25.09,1435.66-16.69-530.67,18.06,592.83,2.1v-40.74ZM458.64,2584.26c46.1,0,83.37,2.2,83.37,4.93s-37.27,4.93-83.37,4.93-83.37-2.2-83.37-4.93,37.38-4.93,83.37-4.93h0Zm1061.24-214.73c45.99,0,83.37,2.1,83.37,4.83s-37.38,4.93-83.37,4.93-83.37-2.21-83.37-4.93,37.27-4.83,83.37-4.83h0Zm968.52-399.42c45.99,0,83.37,2.2,83.37,4.93s-37.38,4.94-83.37,4.94-83.37-2.2-83.37-4.94,37.38-4.93,83.37-4.93h0Zm-741.3,271.01c46.1,0,83.37,3.36,83.37,7.66s-37.27,7.56-83.37,7.56-83.27-3.36-83.27-7.56,37.28-7.66,83.27-7.66h0Zm450.03-134.82c45.99,0,83.27,3.36,83.27,7.56s-37.27,7.66-83.27,7.66-83.37-3.36-83.37-7.66,37.27-7.56,83.37-7.56h0Zm866.78-175.77l-534.14,6.3,218.09,6.93,316.05-13.23Zm911.19-57.65l-1013.98,11.13,448.66,9.76,565.32-20.9Zm-3290.7,651.42c17.53,0,31.92,1.16,31.92,2.63,0,1.37-14.39,2.52-31.92,2.52s-31.92-1.15-31.92-2.52c0-1.47,14.28-2.63,31.92-2.63h0Zm165.27-29.19c17.64,0,31.92,1.16,31.92,2.63,0,1.36-14.28,2.52-31.92,2.52s-31.92-1.15-31.92-2.52c0-1.47,14.28-2.63,31.92-2.63h0Zm-47.15-18.48c6.61,0,12.07.42,12.07.94s-5.46.95-12.07.95-12.18-.42-12.18-.95,5.46-.94,12.18-.94h0Zm144.38-63.42c6.72,0,12.18.52,12.18,1.05s-5.46.94-12.18.94-12.07-.42-12.07-.94,5.46-1.05,12.07-1.05h0Zm365.4-134.72c6.72,0,12.07.42,12.07.94,0,.63-5.36,1.05-12.07,1.05s-12.18-.42-12.18-1.05c0-.52,5.46-.94,12.18-.94h0Zm-243.08,19.43c6.61,0,12.08.52,12.08,1.05s-5.46.94-12.08.94-12.18-.42-12.18-.94,5.46-1.05,12.18-1.05h0Zm-175.14,74.55c17.53,0,31.81,1.16,31.81,2.63,0,1.36-14.28,2.52-31.81,2.52s-31.92-1.16-31.92-2.52c0-1.47,14.28-2.63,31.92-2.63h0Zm283.29-91.67c17.64,0,31.92,1.16,31.92,2.52,0,1.47-14.28,2.63-31.92,2.63s-31.92-1.16-31.92-2.63c0-1.36,14.28-2.52,31.92-2.52h0Zm55.34,20.06c23.94,0,43.36,1.57,43.36,3.47s-19.43,3.47-43.36,3.47-43.47-1.57-43.47-3.47,19.43-3.47,43.47-3.47h0Zm-103.85,21.42c24.05,0,43.47,1.58,43.47,3.46s-19.43,3.47-43.47,3.47-43.36-1.57-43.36-3.47,19.43-3.46,43.36-3.46h0Zm-85.57,25.3c17.53,0,31.92,1.16,31.92,2.63,0,1.37-14.38,2.52-31.92,2.52s-31.92-1.15-31.92-2.52c0-1.47,14.28-2.63,31.92-2.63h0Zm130.41,71.82c6.72,0,12.18.42,12.18.94s-5.46.95-12.18.95-12.18-.42-12.18-.95,5.46-.94,12.18-.94h0Zm-33.7-29.29c17.53,0,31.92,1.16,31.92,2.63,0,1.36-14.39,2.52-31.92,2.52s-31.92-1.16-31.92-2.52c0-1.47,14.28-2.63,31.92-2.63h0Zm200.02-8.3c17.53,0,31.92,1.16,31.92,2.52,0,1.47-14.38,2.63-31.92,2.63s-31.92-1.16-31.92-2.63c0-1.36,14.28-2.52,31.92-2.52h0Zm-37.59-27.72c17.64,0,31.92,1.05,31.92,2.52,0,1.37-14.28,2.52-31.92,2.52s-31.92-1.15-31.92-2.52c0-1.47,14.39-2.52,31.92-2.52h0Zm147-33.28c23.94,0,43.37,1.47,43.37,3.46,0,1.89-19.43,3.47-43.37,3.47s-43.36-1.57-43.36-3.47c0-1.99,19.43-3.46,43.36-3.46h0Zm95.87-22.47c6.72,0,12.18.53,12.18,1.05s-5.46.95-12.18.95-12.18-.42-12.18-.95,5.46-1.05,12.18-1.05h0Zm890.4-345.87c6.72,0,12.08.53,12.08,1.05s-5.35.94-12.08.94-12.18-.42-12.18-.94,5.46-1.05,12.18-1.05h0Zm-104.68,30.03c17.64,0,31.92,1.16,31.92,2.63,0,1.36-14.28,2.52-31.92,2.52s-31.92-1.15-31.92-2.52c0-1.47,14.28-2.63,31.92-2.63h0Zm-92.19,14.07c6.61,0,12.07.42,12.07.95s-5.46.94-12.07.94-12.18-.42-12.18-.94,5.46-.95,12.18-.95h0Zm73.6,22.16c6.72,0,12.08.52,12.08,1.05s-5.36.94-12.08.94-12.18-.42-12.18-.94,5.46-1.05,12.18-1.05h0Zm-423.67,156.97c6.72,0,12.07.42,12.07,1.05,0,.53-5.35.94-12.07.94s-12.18-.42-12.18-.94c0-.63,5.46-1.05,12.18-1.05h0Zm81.9-41.68c6.72,0,12.18.52,12.18,1.05s-5.46.94-12.18.94-12.07-.42-12.07-.94,5.36-1.05,12.07-1.05h0Zm-90.72,7.98c23.94,0,43.37,1.57,43.37,3.46s-19.42,3.47-43.37,3.47-43.47-1.58-43.47-3.47,19.53-3.46,43.47-3.46h0Zm132.93,40.11c17.64,0,31.92,1.16,31.92,2.52,0,1.47-14.28,2.52-31.92,2.52s-31.92-1.05-31.92-2.52c0-1.36,14.28-2.52,31.92-2.52h0Zm-478.38,49.67c17.64,0,31.92,1.16,31.92,2.63,0,1.36-14.28,2.52-31.92,2.52s-31.92-1.15-31.92-2.52c0-1.47,14.28-2.63,31.92-2.63h0Zm90.3-23.52c17.53,0,31.92,1.05,31.92,2.52,0,1.37-14.39,2.52-31.92,2.52s-31.92-1.15-31.92-2.52c0-1.47,14.28-2.52,31.92-2.52h0Zm105.21-15.96c23.94,0,43.36,1.57,43.36,3.47,0,1.99-19.43,3.47-43.36,3.47s-43.47-1.47-43.47-3.47c0-1.89,19.43-3.47,43.47-3.47h0Zm-192.05-51.24c6.72,0,12.18.42,12.18.95s-5.46.94-12.18.94-12.07-.42-12.07-.94,5.35-.95,12.07-.95h0Zm268.17-87.57c6.72,0,12.07.42,12.07.95,0,.63-5.35,1.05-12.07,1.05s-12.18-.42-12.18-1.05c0-.53,5.46-.95,12.18-.95h0Zm250.63-35.38c6.72,0,12.18.42,12.18.94s-5.46.94-12.18.94-12.07-.42-12.07-.94,5.46-.94,12.07-.94h0Zm-140.91,66.67c6.72,0,12.07.42,12.07.94s-5.36.95-12.07.95-12.18-.42-12.18-.95,5.46-.94,12.18-.94h0Zm73.5-20.47c17.64,0,31.92,1.15,31.92,2.52s-14.28,2.52-31.92,2.52-31.92-1.16-31.92-2.52,14.28-2.52,31.92-2.52h0Zm-37.06-19.11c6.72,0,12.18.42,12.18.94s-5.46.94-12.18.94-12.18-.42-12.18-.94,5.46-.94,12.18-.94h0Zm-408.03,29.19c11.44,0,20.79.74,20.79,1.57,0,.94-9.35,1.68-20.79,1.68s-20.79-.74-20.79-1.68c0-.84,9.24-1.57,20.79-1.57h0Zm122.22,90.93c11.55,0,20.79.74,20.79,1.68s-9.24,1.68-20.79,1.68-20.79-.74-20.79-1.68,9.34-1.68,20.79-1.68h0Zm49.98-12.08c11.55,0,20.89.73,20.89,1.68s-9.34,1.68-20.89,1.68-20.79-.73-20.79-1.68,9.35-1.68,20.79-1.68h0Zm77.07-28.25c17.64,0,31.92,1.16,31.92,2.52,0,1.47-14.28,2.62-31.92,2.62s-31.92-1.15-31.92-2.62c0-1.36,14.28-2.52,31.92-2.52h0Zm67.41-20.79c17.64,0,31.92,1.05,31.92,2.52,0,1.36-14.28,2.52-31.92,2.52s-31.92-1.16-31.92-2.52c0-1.47,14.28-2.52,31.92-2.52h0Zm-168.74-24.67c17.64,0,31.92,1.15,31.92,2.62,0,1.37-14.28,2.52-31.92,2.52s-31.92-1.16-31.92-2.52c0-1.47,14.28-2.62,31.92-2.62h0Zm-92.72,12.18c23.94,0,43.36,1.58,43.36,3.47s-19.42,3.47-43.36,3.47-43.47-1.58-43.47-3.47,19.42-3.47,43.47-3.47h0Zm2491.96-396.27l-538.96,8.4,268.8,4.2,270.17-12.6Zm-554.29-17.95l-375.69-.74,177.77-6.93,197.93,7.67Zm-145.84,24.25l-882,9.77,518.07-18.06,363.93,8.3Zm-1644.62,332.85c6.3,0,11.34.74,11.34,1.68s-5.04,1.68-11.34,1.68-11.34-.73-11.34-1.68,5.04-1.68,11.34-1.68h0Zm266.7-211.15c6.3,0,11.34.74,11.34,1.68s-5.04,1.68-11.34,1.68-11.34-.73-11.34-1.68,5.04-1.68,11.34-1.68h0Zm173.67-41.68c6.19,0,11.24.84,11.24,1.68,0,.94-5.04,1.68-11.24,1.68s-11.34-.73-11.34-1.68c0-.84,5.04-1.68,11.34-1.68h0Zm-276.47,47.25c6.3,0,11.34.73,11.34,1.68s-5.04,1.68-11.34,1.68-11.34-.74-11.34-1.68,5.14-1.68,11.34-1.68h0Zm-357.63,0c6.19,0,11.23.73,11.23,1.68s-5.04,1.68-11.23,1.68-11.34-.74-11.34-1.68,5.04-1.68,11.34-1.68h0Zm-291.27,15.54c6.3,0,11.34.74,11.34,1.68,0,.84-5.04,1.57-11.34,1.57s-11.34-.73-11.34-1.57c0-.94,5.15-1.68,11.34-1.68h0Zm73.19-.52c7.98,0,14.38.94,14.38,2.1s-6.4,2.1-14.38,2.1-14.28-.94-14.28-2.1,6.4-2.1,14.28-2.1h0Zm47.35,92.5c5.57,0,10.08.95,10.08,2.1s-4.51,2.1-10.08,2.1-9.97-.94-9.97-2.1,4.51-2.1,9.97-2.1h0Zm-33.81-11.86c5.56,0,9.97.95,9.97,2.1s-4.41,2.1-9.97,2.1-9.98-.94-9.98-2.1,4.41-2.1,9.98-2.1h0Zm-122.96,32.02c5.57,0,10.08.94,10.08,2.1,0,1.05-4.52,1.99-10.08,1.99s-9.97-.95-9.97-1.99c0-1.16,4.52-2.1,9.97-2.1h0Zm-113.61,9.66c5.57,0,10.08.94,10.08,2.1s-4.51,2.1-10.08,2.1-9.97-.95-9.97-2.1,4.51-2.1,9.97-2.1h0Zm-121.48,12.49c5.46,0,9.98.94,9.98,2.1s-4.52,2.1-9.98,2.1-10.08-.94-10.08-2.1,4.51-2.1,10.08-2.1h0Zm-125.79,5.46c5.56,0,10.08,1.26,10.08,2.84s-4.52,2.83-10.08,2.83-9.98-1.26-9.98-2.83,4.52-2.84,9.98-2.84h0Zm-133.66,8.5c5.56,0,9.97,1.26,9.97,2.83s-4.41,2.84-9.97,2.84-9.98-1.26-9.98-2.84,4.41-2.83,9.98-2.83h0Zm-33.7,9.35c4.3,0,7.88,1.05,7.88,2.2,0,1.26-3.57,2.31-7.88,2.31s-7.77-1.05-7.77-2.31c0-1.16,3.47-2.2,7.77-2.2h0Zm-84,20.89c4.3,0,7.77.95,7.77,2.2s-3.47,2.2-7.77,2.2-7.77-.94-7.77-2.2,3.47-2.2,7.77-2.2h0Zm147.21,64.58c7.14,0,12.91,1.57,12.91,3.57s-5.78,3.67-12.91,3.67-12.81-1.68-12.81-3.67,5.77-3.57,12.81-3.57h0Zm-157.4,47.88c4.31,0,7.77,1.05,7.77,2.2,0,1.26-3.47,2.31-7.77,2.31s-7.88-1.05-7.88-2.31c0-1.16,3.57-2.2,7.88-2.2h0Zm-99.02,16.59c4.31,0,7.77,1.05,7.77,2.21,0,1.26-3.47,2.21-7.77,2.21s-7.88-.95-7.88-2.21c0-1.16,3.57-2.21,7.88-2.21h0Zm-106.26-5.88c4.3,0,7.77.95,7.77,2.2s-3.47,2.2-7.77,2.2-7.88-.94-7.88-2.2,3.57-2.2,7.88-2.2h0Zm-89.46,25.62c7.14,0,12.81,1.68,12.81,3.67s-5.67,3.68-12.81,3.68-12.81-1.68-12.81-3.68,5.67-3.67,12.81-3.67h0Zm-87.99,61.22c4.3,0,7.77,1.05,7.77,2.2,0,1.26-3.47,2.2-7.77,2.2s-7.77-.94-7.77-2.2c0-1.16,3.47-2.2,7.77-2.2h0Zm-36.33-12.18c7.14,0,12.81,1.58,12.81,3.57,0,2.1-5.67,3.67-12.81,3.67s-12.81-1.58-12.81-3.67,5.67-3.57,12.81-3.57h0Zm-142.69,7.88c7.03,0,12.81,1.68,12.81,3.67s-5.78,3.57-12.81,3.57-12.91-1.57-12.91-3.57,5.77-3.67,12.91-3.67h0Z"/>
      <rect class="cls-4" width="4200" height="2940"/>
    </g>
  </g>
</svg>