<?xml version="1.0" encoding="UTF-8"?>
<svg id="Layer_2" data-name="Layer 2" xmlns="http://www.w3.org/2000/svg" xmlns:xlink="http://www.w3.org/1999/xlink" viewBox="0 0 4200 2940">
  <defs>
    <style>
      .cls-1 {
        fill: url(#linear-gradient-4);
      }

      .cls-1, .cls-2, .cls-3, .cls-4, .cls-5, .cls-6, .cls-7, .cls-8, .cls-9, .cls-10, .cls-11, .cls-12, .cls-13, .cls-14, .cls-15, .cls-16, .cls-17, .cls-18, .cls-19, .cls-20, .cls-21, .cls-22, .cls-23, .cls-24, .cls-25, .cls-26, .cls-27, .cls-28 {
        fill-rule: evenodd;
      }

      .cls-2 {
        fill: url(#linear-gradient-12);
      }

      .cls-3 {
        fill: url(#linear-gradient-21);
      }

      .cls-4 {
        fill: url(#linear-gradient-2);
      }

      .cls-5 {
        fill: url(#linear-gradient);
      }

      .cls-6 {
        fill: url(#linear-gradient-15);
      }

      .cls-7 {
        fill: url(#linear-gradient-24);
      }

      .cls-8 {
        fill: url(#linear-gradient-9);
      }

      .cls-9 {
        fill: url(#linear-gradient-25);
      }

      .cls-10 {
        fill: url(#linear-gradient-6);
      }

      .cls-11 {
        fill: url(#linear-gradient-16);
      }

      .cls-12 {
        fill: url(#linear-gradient-26);
      }

      .cls-13 {
        fill: url(#linear-gradient-14);
      }

      .cls-14 {
        fill: url(#linear-gradient-5);
      }

      .cls-15 {
        fill: url(#linear-gradient-23);
      }

      .cls-16 {
        fill: url(#linear-gradient-28);
      }

      .cls-17 {
        fill: url(#linear-gradient-27);
      }

      .cls-18 {
        fill: url(#linear-gradient-10);
      }

      .cls-19 {
        fill: url(#linear-gradient-18);
      }

      .cls-20 {
        fill: url(#linear-gradient-11);
      }

      .cls-21 {
        fill: url(#linear-gradient-19);
      }

      .cls-29 {
        fill: none;
      }

      .cls-22 {
        fill: url(#linear-gradient-20);
      }

      .cls-23 {
        fill: url(#linear-gradient-22);
      }

      .cls-24 {
        fill: url(#linear-gradient-13);
      }

      .cls-25 {
        fill: url(#linear-gradient-7);
      }

      .cls-26 {
        fill: url(#linear-gradient-8);
      }

      .cls-27 {
        fill: url(#linear-gradient-3);
      }

      .cls-28 {
        fill: url(#linear-gradient-17);
      }
    </style>
    <linearGradient id="linear-gradient" x1="3689.07" y1="2355.15" x2="3689.07" y2="1767.47" gradientUnits="userSpaceOnUse">
      <stop offset="0" stop-color="#02135b"/>
      <stop offset="1" stop-color="#1f0b7a"/>
    </linearGradient>
    <linearGradient id="linear-gradient-2" x1="2248.38" y1="2576.28" x2="2248.38" y2="2109.07" xlink:href="#linear-gradient"/>
    <linearGradient id="linear-gradient-3" x1="2461.3" y1="2516.32" x2="2461.3" y2="2058.63" xlink:href="#linear-gradient"/>
    <linearGradient id="linear-gradient-4" x1="1700.11" y1="2940" x2="1700.11" y2="2363.65" xlink:href="#linear-gradient"/>
    <linearGradient id="linear-gradient-5" x1="2881.94" y1="2575.12" x2="2881.94" y2="1892.84" xlink:href="#linear-gradient"/>
    <linearGradient id="linear-gradient-6" x1="2100" y1="2940" x2="2100" y2="1794.03" xlink:href="#linear-gradient"/>
    <linearGradient id="linear-gradient-7" x1="3229.8" y1="2720.13" x2="3229.8" y2="1794.03" gradientUnits="userSpaceOnUse">
      <stop offset="0" stop-color="#0b0776"/>
      <stop offset="1" stop-color="#441cbc"/>
    </linearGradient>
    <linearGradient id="linear-gradient-8" x1="1692.28" y1="2940" x2="1692.28" y2="2464.45" gradientUnits="userSpaceOnUse">
      <stop offset="0" stop-color="#02103c"/>
      <stop offset="1" stop-color="#010953"/>
    </linearGradient>
    <linearGradient id="linear-gradient-9" x1="2152.66" x2="2152.66" y2="2162.37" xlink:href="#linear-gradient-8"/>
    <linearGradient id="linear-gradient-10" x1="3881.17" x2="3881.17" y2="2529.87" xlink:href="#linear-gradient-8"/>
    <linearGradient id="linear-gradient-11" x1="2900.31" x2="2900.31" y2="2518" xlink:href="#linear-gradient-8"/>
    <linearGradient id="linear-gradient-12" x1="3266.68" x2="3266.68" y2="2133.91" xlink:href="#linear-gradient-8"/>
    <linearGradient id="linear-gradient-13" x1="3710.44" x2="3710.44" y2="2193.97" xlink:href="#linear-gradient-8"/>
    <linearGradient id="linear-gradient-14" x1="3481.33" x2="3481.33" y2="2067.35" xlink:href="#linear-gradient-8"/>
    <linearGradient id="linear-gradient-15" x1="1155.68" x2="1155.68" y2="2579.01" xlink:href="#linear-gradient-8"/>
    <linearGradient id="linear-gradient-16" x1="246.33" x2="246.33" y2="2541.63" xlink:href="#linear-gradient-8"/>
    <linearGradient id="linear-gradient-17" x1="764.09" x2="764.09" y2="2461.51" xlink:href="#linear-gradient-8"/>
    <linearGradient id="linear-gradient-18" x1="1460.32" x2="1460.32" y2="2284.28" xlink:href="#linear-gradient-8"/>
    <linearGradient id="linear-gradient-19" x1="1861.97" x2="1861.97" y2="2284.28" xlink:href="#linear-gradient-8"/>
    <linearGradient id="linear-gradient-20" x1="1665.2" x2="1665.2" y2="2412.06" xlink:href="#linear-gradient-8"/>
    <linearGradient id="linear-gradient-21" x1="2546.65" x2="2546.65" y2="2284.28" xlink:href="#linear-gradient-8"/>
    <linearGradient id="linear-gradient-22" x1="2948.4" x2="2948.4" y2="2284.28" xlink:href="#linear-gradient-8"/>
    <linearGradient id="linear-gradient-23" x1="2751.52" x2="2751.52" y2="2412.06" xlink:href="#linear-gradient-8"/>
    <linearGradient id="linear-gradient-24" x1="3974.3" y1="2871.01" x2="3974.3" y2="2006.13" xlink:href="#linear-gradient-8"/>
    <linearGradient id="linear-gradient-25" x1="4110.07" y1="2773.58" x2="4110.07" y2="2024.82" xlink:href="#linear-gradient-8"/>
    <linearGradient id="linear-gradient-26" x1="1093.83" x2="1093.83" y2="2413.84" xlink:href="#linear-gradient-8"/>
    <linearGradient id="linear-gradient-27" x1="894.19" x2="894.19" y2="2506.56" xlink:href="#linear-gradient-8"/>
    <linearGradient id="linear-gradient-28" x1="452.65" x2="452.65" y2="2667.35" xlink:href="#linear-gradient-8"/>
  </defs>
  <g id="Layer_1-2" data-name="Layer 1">
    <g id="LAND_1_Group_" data-name="LAND 1 &amp;lt;Group&amp;gt;">
      <g>
        <path class="cls-5" d="m4019.61,1886.85c-69.62,3.57-128.84,39.27-175.24,114.66-17.54,1.16-34.65,3.78-51.24,8.19,22.15-91.03,38.85-174.51,37.9-242.23-35.38,27.61-60.69,69.93-79.8,122.43-75.18,13.76-126.52,72.77-147.73,189-.94-95.86-4.31-184.17-21.42-253.99-62.48,69.3-38.43,241.6-15.85,427.24-3.78,9.35-7.46,19.01-11.02,28.88-7.25-155.71-9.87-301.66-71.72-359.62-4.83,60.48,5.98,137.97,19.21,221.65-37.69-118.65-98.49-171.99-176.82-175.98,49.45,20.16,89.67,74.87,119.07,169.68-61.74-90.83-138.07-132.3-225.54-135.55,72.56,21.1,137.55,84.31,193.62,197.4-48.2-43.05-111.93-63.1-188.06-64.89,86.1,16.38,152.36,72.66,194.25,178.18-16.8-13.23-35.18-23.94-55.23-32.23-47.88-60.58-125.9-89.88-171.04,0,82.42-48.2,117.07-42.32,136.92-11.66-26.99-7.35-56.49-11.23-87.99-11.97,38.54,7.25,73.19,22.68,103.32,46.83,5.15,15.75,9.66,33.71,15.23,52.29h303.76c-3.78-59.85-4.93-113.72-3.57-161.7,13.02-25.62,26.46-48.62,40.32-69.09-10.29,73.82-19,152.57-30.76,230.79h160.44c14.91-49.67,34.34-90.51,57.75-123.17-8.61,38.43-14.7,80.96-23.62,123.17h58.59c25.2-83.79,29.19-153.72,160.23-79.69-46.31,15.01-85.05,40.95-115.29,79.69h67.2c39.27-53.44,89.67-84.32,149.73-95.76-35.18.84-67.72,5.57-97.34,14.7-49.77-90.93-135.77-47.25-180.6,23.1,15.33-44.62,33.07-88.62,44.52-127.89,26.35-17.75,55.86-29.51,88.09-35.6-29.08.73-56.28,3.99-81.48,10.29,3.57-16.17,5.67-31.18,5.36-44.83-24.25,13.44-40.84,34.75-53.02,61.22-28.66,13.02-53.97,30.97-75.5,54.49,4.09-18.69,8.4-36.64,12.91-53.65,51.45-89.78,109.62-141.33,173.78-160.02-48.41,1.78-93.45,15.33-134.51,42.52,36.33-85.26,80.75-136.18,132.2-156.87h0Zm-274.37,20.16c-13.54,41.58-23.83,88.83-32.55,139.65-14.8,10.29-29.09,22.36-42.84,36.33,12.92-86.31,38.54-143.95,75.39-175.98h0Zm97.65,97.02c-24.78,40.95-45.99,93.45-63,158.66-19.85,33.49-38.01,72.66-54.39,118.02,18.9-84.32,42.11-168.73,61.95-248.22,17.95-12.49,36.44-21.94,55.44-28.45h0Z"/>
        <g>
          <path class="cls-4" d="m2415.52,2534.6c23.94-31.4,39.59-90.09,19.11-122.22-42.52,1.26-75.71,63.63-68.98,110.67-7.25-20.26-15.64-40.11-24.99-59.75,37.27-2.42,67.83-111.82,32.13-152.15-37.38,8.51-60.37,64.47-55.02,108.47-5.88-10.4-12.08-20.69-18.58-30.98,33.91-14.91,49.45-121.27,11.13-154.77-33.49,13.02-50.19,64.89-44.31,106.58-8.19-11.13-16.8-22.16-25.83-33.08,33.08-6.4,49.67-108.57,13.97-139.75-35.81,13.86-50.19,77.28-34.33,115.71-9.13-10.5-18.69-20.9-28.45-31.19.32.11.73.32,1.05.42,31.92-12.81,30.56-118.65-10.18-141.01-29.82,20.37-34.75,77.59-17.96,113.19-5.25-5.25-10.71-10.4-16.06-15.54,13.02-35.17-45.36-111.93-87.36-98.59-11.34,39.48,19.11,89.04,52.71,102.06-24.46-1.89-49.56,5.15-60.9,24.78,17.95,52.39,102.06,62.37,120.96,13.23-2.62-16.49-20.26-29.09-41.58-34.86,5.15-.21,10.29-1.57,15.12-4.2.21-.42.32-.74.42-1.05,65.84,71.71,121.07,147.32,161.49,228.27-17.64-14.91-43.89-25.3-67.51-25.51,11.65-6.51,21.1-15.75,26.04-27.93-26.98-54.6-121.07-49.98-135.13,8.09,6.72,23,40.22,34.02,72.76,30.66-1.99,1.58-3.88,3.36-5.67,5.36,9.45,60.27,95.86,93.03,128.1,49.25,7.46,17.43,14.28,35.17,20.47,53.13-28.03-28.98-89.35-45.47-116.02-14.91,6.93,43.58,59.33,59.64,80.43,59.33,40.42-16.28,65.41-26.46,103-41.68h0Zm-199.08-231.63c-29.4-44.94-112.25-28.14-118.97,25.41,15.12,35.7,105.21,23.84,118.97-25.41h0Z"/>
          <path class="cls-27" d="m2460.99,2516.32c-33.92-4.3-78.54-29.4-84.52-60.27,27.93-24.36,85.89-7.56,109.41,23.94-7.24-16.17-13.75-32.65-19.32-49.77-25.2,20.68-109.41-25.2-110.46-69.93,28.88-17.11,76.54,2,99.12,30.98-2.31-9.56-4.51-19.32-6.4-29.19-30.45,11.34-103.21-41.68-98.59-83.9,29.09-12.18,70.35,8.3,91.24,36.23-1.36-11.45-2.31-23-3.15-34.65-24.88,15.75-95.76-34.12-91.45-73.5,31.08-13.02,77.6,15.43,90.3,47.35-.42-11.55-.53-23.2-.32-35.07-.1.32-.31.63-.42.84-27.93,11.45-89.57-51.24-76.86-88.41,31.08-5.77,68.04,24.89,78.33,55.55.31-6.2.63-12.39,1.05-18.59-29.09-12.81-37.27-92.19-2.62-109.3,30.56,16.48,40.53,63.42,26.77,90.93,14.39-15.65,34.55-26.36,53.45-21.53,19.43,41.16-28.14,96.71-69.3,79.17-8.08-11.13-4.2-28.98,5.98-44.94-3.47,2.94-7.56,5.15-12.18,6.51-.31-.1-.63-.21-.94-.31.42,80.75,9.97,157.61,32.02,228.8,2.52-19.11,13.02-40.64,27.93-54.81-11.24,3.15-22.68,3.25-33.07-.84-15.02-47.98,47.67-100.8,90.93-75.18,9.24,17.43-5.57,43.68-28.25,60.9,2.2-.21,4.41-.31,6.72-.21,29.61,40.85-5.98,111.09-52.5,104.48,5.56,14.7,11.66,29.08,18.38,43.15.73-33.49,30.03-79.28,65.2-77.28,21.32,29.61-2.63,70.03-16.27,82.32-35.39,14.28-57.33,23.21-90.2,36.54h0Zm-10.08-253.15c-7.88-43.68,54.81-82.85,90.72-55.54,11.55,29.82-52.92,76.12-90.72,55.54h0Z"/>
        </g>
        <path class="cls-1" d="m1376.02,2480.84c68.25,3.36,126.32,38.43,171.78,112.45,17.22,1.05,34.02,3.67,50.3,7.88-21.74-89.14-38.11-171.04-37.17-237.51,34.65,27.09,59.53,68.57,78.22,120.02,73.71,13.65,124.11,71.5,144.9,185.43.94-93.98,4.2-180.6,21-249.06,61.32,67.94,37.69,236.88,15.54,418.95,3.68,9.14,7.24,18.59,10.81,28.35,7.03-152.77,9.66-295.89,70.35-352.69,4.73,59.33-5.88,135.24-18.9,217.35,36.96-116.34,96.6-168.73,173.36-172.51-48.41,19.74-87.89,73.4-116.76,166.42,60.58-89.14,135.45-129.78,221.24-133.03-71.19,20.79-134.93,82.74-189.95,193.62,47.25-42.21,109.83-61.85,184.48-63.63-84.42,15.96-149.41,71.3-190.47,174.61,16.38-12.91,34.55-23.31,54.08-31.5,47.04-59.43,123.48-88.2,167.79-.11-80.85-47.25-114.77-41.48-134.3-11.34,26.56-7.24,55.33-11.02,86.31-11.76-37.8,7.14-71.72,22.26-101.33,45.89-5.04,15.54-9.45,33.08-14.91,51.35h-297.89c3.78-58.8,4.93-111.51,3.47-158.55-12.71-25.2-25.83-47.78-39.48-67.83,10.08,72.45,18.59,149.63,30.14,226.38h-157.29c-14.7-48.72-33.6-88.83-56.6-120.85,8.4,37.8,14.39,79.49,23.2,120.85h-57.54c-24.68-82.11-28.66-150.78-157.08-78.23,45.36,14.8,83.37,40.22,112.98,78.23h-65.94c-38.43-52.4-87.89-82.74-146.79-93.98,34.55.84,66.47,5.56,95.44,14.39,48.83-89.04,133.14-46.2,177.14,22.78-15.12-43.78-32.44-86.94-43.68-125.37-25.83-17.54-54.7-28.98-86.31-34.97,28.45.63,55.12,3.88,79.9,10.08-3.57-15.86-5.56-30.66-5.35-43.99,23.84,13.12,40.11,34.02,51.98,60.06,28.14,12.7,52.92,30.34,74.02,53.44-3.99-18.38-8.19-35.91-12.6-52.71-50.4-87.99-107.52-138.49-170.41-156.87,47.56,1.78,91.67,15.01,131.88,41.68-35.6-83.58-79.06-133.46-129.57-153.72h0Zm269.01,19.64c13.34,40.84,23.41,87.25,31.92,137.02,14.49,10.08,28.56,21.94,42,35.6-12.7-84.63-37.8-141.23-73.92-172.62h0Zm-95.76,95.13c24.36,40.22,45.05,91.77,61.74,155.61,19.53,32.86,37.27,71.29,53.34,115.71-18.48-82.63-41.26-165.48-60.69-243.29-17.64-12.39-35.7-21.63-54.39-28.03h0Z"/>
        <path class="cls-14" d="m2498.37,2031.43c80.64,4.1,149.42,45.57,203.39,133.14,20.37,1.26,40.22,4.41,59.43,9.45-25.72-105.63-45.04-202.55-43.99-281.19,41.05,32.02,70.45,81.16,92.72,142.06,87.15,16.07,146.79,84.63,171.36,219.45,1.16-111.19,5.04-213.78,24.99-294.84,72.55,80.43,44.62,280.45,18.38,496.02,4.31,10.82,8.61,21.95,12.81,33.5,8.29-180.81,11.45-350.18,83.27-417.48,5.57,70.14-6.93,160.12-22.36,257.25,43.78-137.76,114.34-199.71,205.27-204.22-57.43,23.31-104.05,86.94-138.28,196.98,71.72-105.42,160.34-153.62,261.87-157.4-84.21,24.57-159.7,97.96-224.81,229.11,55.97-49.87,129.99-73.18,218.3-75.28-99.85,19.01-176.82,84.42-225.43,206.85,19.42-15.33,40.84-27.72,64.05-37.48,55.65-70.35,146.16-104.27,198.56,0-95.66-55.86-135.76-49.14-158.87-13.44,31.4-8.61,65.52-13.12,102.06-13.97-44.73,8.51-84.84,26.36-119.91,54.39-5.88,18.38-11.23,39.17-17.64,60.79h-352.7c4.51-69.61,5.88-132.09,4.2-187.74-15.01-29.82-30.66-56.49-46.73-80.32,11.87,85.78,21.95,177.24,35.6,268.06h-186.17c-17.33-57.75-39.79-105.21-66.99-143.11,9.87,44.73,17.01,94.08,27.41,143.11h-68.04c-29.29-97.33-33.91-178.5-185.96-92.61,53.65,17.43,98.7,47.57,133.77,92.61h-78.02c-45.57-62.16-104.06-97.96-173.88-111.19,40.84.94,78.64,6.4,112.98,17.01,57.86-105.53,157.71-54.81,209.79,26.88-17.95-51.87-38.43-103.01-51.76-148.47-30.66-20.69-64.78-34.23-102.17-41.37,33.6.84,65.2,4.72,94.5,11.97-4.2-18.8-6.51-36.23-6.19-52.08,28.14,15.54,47.35,40.32,61.53,71.09,33.28,15.12,62.58,36.01,87.57,63.32-4.72-21.74-9.77-42.53-15.01-62.37-59.64-104.16-127.16-164.01-201.6-185.74,56.17,2.1,108.47,17.85,156.14,49.35-42.21-99.02-93.66-158.03-153.41-182.07h0Zm318.36,23.42c15.86,48.3,27.72,103.11,37.8,162.12,17.22,11.97,33.81,25.93,49.77,42.21-15.01-100.27-44.73-167.16-87.57-204.33h0Zm-113.3,112.56c28.77,47.57,53.34,108.57,73.08,184.28,23.1,38.85,44.1,84.32,63.21,136.92-22.05-97.86-48.93-195.93-72.03-288.12-20.79-14.6-42.21-25.51-64.26-33.08h0Z"/>
      </g>
      <g>
        <polygon class="cls-10" points="0 2853.37 289.9 2866.29 674.2 2757.09 1007.58 2757.09 1222.41 2794.16 1607.65 2742.28 1778.07 2653.35 2067.03 2608.93 2259.6 2445.87 2504.04 2357.04 2681.91 2408.91 2844.87 2327.43 3044.9 2327.43 3385.73 2268.11 3459.75 2305.17 3704.19 2238.49 3822.74 2075.53 3963.54 2001.41 4052.48 1794.03 4200 1802.33 4200 2940 0 2940 0 2853.37"/>
        <path class="cls-25" d="m2259.6,2445.87l244.44-88.83,338.42,339.05-78.23,24.05-232.05-130.1-126.32-12.28-146.26-131.88Zm585.27-118.44h200.03l340.83-59.32,10.92,107.83-111.93,112.45-121.38-7.24,63.53-79.59-117.6-20.47-103.74,96.6-197.19-80.53,36.54-69.72Zm977.87-251.9l140.8-74.13,100.49,42.94-72.24,58.27,35.18,192.36-20.58,95.66-92.09-22.05-91.56-293.06Zm229.74-281.5l147.52,8.3v152.35l-41.48-10.39-106.05-150.26Z"/>
      </g>
      <g>
        <g>
          <path class="cls-26" d="m1670.24,2602.95c-57.33-10.92-147-53.55-296.94-72.98,202.34,62.37,259.66,98.49,326.44,89.56,13.23,7.98,26.36,16.49,39.48,25.62-69.4-3.89-171.15-28.03-336.42-49.56,202.34,62.48,279.51,90.09,352.59,61.21,7.24,5.25,14.38,10.71,21.52,16.38-73.08.73-197.51.63-365.4-21.21,202.44,62.47,305.65,61,378.84,32.02,8.09,6.72,16.07,13.55,23.94,20.58-74.13,3.78-208.95,23.94-378.32,2,202.34,62.37,316.79,37.48,389.97,8.61,6.62,5.98,13.12,12.18,19.53,18.38-73.5,6.3-205.48,45.78-375.9,23.62,202.44,62.48,313.11,15.65,386.3-13.23,5.14,5.04,10.18,10.19,15.12,15.43-74.97,7.14-220.5,55.96-387.45,51.98,218.51,29.3,323.93-12.81,397.11-41.68,3.89,4.09,7.77,8.3,11.55,12.6-74.13,7.98-213.89,66.67-381.46,97.33,233.73-11.34,317.41-58.17,390.49-87.15,5.04,5.67,9.98,11.44,14.91,17.22-74.03,7.77-213.99,66.67-381.99,97.44,233.73-11.34,317.31-58.17,390.49-87.15,7.35,9.03,14.7,18.17,21.84,27.51-73.71,4.62-234.15,35.49-376.42,92.51h45.47c177.13-32.86,273.21-58.8,337.47-84.1,5.46,7.24,10.92,14.59,16.38,22.05-59.22,3.67-174.82,24.36-292,62.06h111.3c86.41-19.42,143.75-36.65,186.69-53.65,4.62,6.51,9.24,13.02,13.75,19.63-35.59,3.36-92.3,16.59-157.29,34.02h101.01c23.73-9.66,43.89-18.69,61.85-25.83,5.04,7.56,10.08,15.23,15.12,22.89-6.83.63-14.38,1.68-22.58,2.94h44.31c-134.93-213.67-396.8-438.38-678.51-475.55,109.52,42.52,211.37,77.38,317.21,138.5h0Z"/>
          <path class="cls-8" d="m2047.6,2514.01c8.19,11.24,16.17,22.78,24.05,34.65-55.34-52.5-132.2-160.96-280.25-288.75,186.27,209.9,231.94,288.33,304.5,327.08,10.82,17.74,21.21,36.02,31.29,54.81-70.35-53.76-166.74-151.83-329.91-292.74,186.27,210,255.78,293.9,342.4,316.47,5.46,10.6,10.82,21.42,16.07,32.34-75.92-51.66-204.75-141.01-370.44-284.13,186.27,209.89,293.69,282.56,380.31,305.13,5.88,12.6,11.55,25.41,17.12,38.43-78.22-49.24-225.33-125.16-392.6-269.53,186.27,209.89,314.16,266.28,400.78,288.85,4.52,10.92,8.93,21.95,13.23,33.08-78.43-46.2-229.95-100.06-398.16-245.28,186.27,210,318.46,240.98,405.09,263.44,3.36,8.93,6.62,17.85,9.87,26.88-80.33-46.41-249.27-100.27-420.84-224.28,215.35,187.22,340.41,219.35,427.04,241.92,2.42,7.03,4.83,14.17,7.24,21.31-79.8-44.94-246.54-84.42-431.55-172.94,246.22,155.92,350.49,167.48,437.11,189.94,2.94,9.45,5.99,19.01,8.82,28.56-79.49-45.04-246.54-84.52-432.07-173.25,188.58,119.49,293.89,154.14,371.8,173.99h72.14c-2.73-8.82-5.57-17.54-8.4-26.15,54.08-122.96,98.91-409.18,131.04-551.35-76.86,251.69-113.72,426.93-136.08,535.92-.84-2.42-7.04-20.68-9.24-27.19,45.78-104.26,99.01-395.85,104.16-553.03-25.62,198.87-84.21,425.56-108.99,539.8-3.78-10.39-7.56-20.68-11.44-30.87,37.48-55.02,87.15-447.82,89.35-516.81-25.62,198.98-70.88,393.33-94.18,504.1-4.83-12.18-9.66-24.26-14.6-36.12,51.24-116.55,81.38-353.53,85.78-489.72-25.62,199.29-67.72,369.5-90.72,477.75-3.89-8.92-7.66-17.74-11.55-26.56,34.44-64.89,64.68-419.16,66.78-481.95-17.11,132.72-33.92,249.48-49.45,344.4,14.28-106.58,11.44-241.92,15.01-353.11-25.73,199.5-29.29,348.92-48.61,455.17-6.3-13.23-12.71-26.25-19.22-39.06,45.36-103.01,18.27-316.47,22.26-438.79-25.73,199.71-9.24,326.65-26.67,430.81-2.83-7.14-18.38-35.17-22.15-41.9,43.89-99.85,21-311.22-6.51-417.16,5.25,108.36,20.69,299.88,2.31,409.71-3.99-7.04-7.98-13.97-12.07-20.79,28.98-117.18,10.29-297.78-32.34-405.83,12.39,87.36,36.22,277.94,26.56,396.27-5.36-10.08-16.69-26.99-21.42-34.34,32.02-129.25-7.67-275.83-79.9-363.62,39.37,82.22,82.85,239.51,74.23,355.01-.84-1.37-5.99-8.93-9.55-14.28-7.35-165.59-84.31-277.1-150.89-357.95,38.95,81.17,118.86,217.88,140.49,342.83-55.65-149.83-143.01-250.22-259.66-327.7,149.73,144.38,194.67,251.68,252.63,336.52h0Zm104.58,425.99c-98.28-46.31-229.32-97.33-351.01-123.69,109.94,53.65,196.56,93.66,266.49,123.69h84.52Zm-97.97,0c-76.44-30.45-160.96-58.59-241.29-76.02,59.85,29.19,112.67,54.28,159.81,76.02h81.48Zm-140.07,0c-31.29-11.34-62.05-22.47-91.66-33.39,18.48,11.97,36.43,22.99,53.65,33.39h38.01Zm485.62,0c47.67-123.38,83.89-242.44,120.23-406.77-19.74,53.44-40.85,109.83-61.85,166.42,17.43-60.9,35.18-130.41,52.92-210.21-54.6,147.42-119.49,318.57-164.85,450.55h53.55Zm-57.33,0c56.81-158.34,99.75-334.32,137.66-497.07-65.31,183.33-124.53,366.97-161.49,497.07h23.83Zm-27.61,0c28.98-103.64,56.91-255.36,134.61-514.61-37.07,78.86-66.78,163.17-90.51,244.02,17.12-70.46,37.38-158.13,63-271.32-74.86,244.86-131.56,430.29-157.39,541.9h13.44c14.49-35.39,27.61-72.87,41.89-122.11-10.39,44.84-19.11,86.2-26.35,122.11h21.31Zm-119.81-290.33c-4.93,28.66-9.76,54.91-14.49,78.54-1.89-4.2-3.78-8.3-5.67-12.39,4.3-6.51,18.38-57.75,20.16-66.15h0Z"/>
        </g>
        <g>
          <path class="cls-18" d="m4200,2575.12c-1.05-6.19-1.99-12.39-2.94-18.69-11.44,41.16-11.66,106.79-6.51,183.96-15.96-72.97-24.36-142.17-18.27-204.12-28.66,26.04-32.44,94.5-24.25,183.54-14.07-80.74-35.38-147.21-68.57-189.94,2.42,65.94,14.91,128.52,32.97,189.1-21.1-48.3-67.93-113.08-96.91-141.12,10.39,36.75,23,75.7,36.43,115.61-2.73,1.89-5.35,3.89-7.98,5.78-17.01-26.15-40.53-59.12-66.47-73.4,4.73,26.46,19.01,61.01,37.38,98.07-29.19,27.93-51.87,59.75-70.35,94.18,32.13-83.16,25.83-167.37,2.2-252.1-25.3,71.71-39.9,151.62-45.46,238.56-8.09-70.14-23-137.76-49.88-200.76-14.28,72.56-16.91,149.31-15.96,227.53-8.29-73.92-20.37-147.73-39.48-221.34-26.04,60.9-36.86,136.29-38.33,220.19-13.02-50.72-30.76-85.05-50.71-112.14,3.25,40.53,12.39,82.42,24.46,124.95-40.63-90.72-81.9-135.56-123.37-152.67,16.59,58.28,44.41,116.13,72.13,168.84-20.68-33.07-52.18-74.55-82-95.44,1.05,42.84,23.94,91.98,39.48,127.57-20.37-27.83-40.84-49.24-61.64-64.16-.42,20.27,9.03,65.94,32.55,88.52-21.53,0-36.43,11.02-46.2,24.36h637.66v-364.88Z"/>
          <path class="cls-20" d="m3251.96,2610.51c-32.24,6.3-61.64,92.82-71.08,136.5-1.89-77.59-23.42-141.54-48.51-182.91-13.86,27.72-14.39,99.12-8.08,130.83-16.91-47.67-27.41-97.97-35.18-149.52-11.76,42.32-11.97,109.83-6.72,189.31-16.49-75.07-25.1-146.26-18.8-210.11-29.4,26.77-33.39,97.23-24.88,188.9-14.49-83.16-36.44-151.51-70.67-195.51,2.52,67.93,15.33,132.3,34.02,194.67-21.84-49.77-69.93-116.44-99.75-145.32,10.6,37.8,23.63,78.02,37.38,118.97-2.73,2-5.46,3.99-8.19,5.98-17.43-26.88-41.68-60.79-68.36-75.49,4.83,27.19,19.64,62.79,38.54,100.91-30.14,28.67-53.44,61.53-72.35,96.91,32.97-85.58,26.46-172.31,2.2-259.35-25.93,73.71-41.05,155.82-46.72,245.39-8.4-72.24-23.63-141.75-51.45-206.53-14.6,74.55-17.33,153.61-16.38,234.05-8.51-76.13-20.9-152.04-40.53-227.75-26.88,62.69-37.91,140.28-39.48,226.59-13.34-52.29-31.71-87.57-52.19-115.4,3.36,41.69,12.81,84.84,25.2,128.63-41.79-93.45-84.21-139.54-126.94-157.18,17.01,59.95,45.67,119.49,74.24,173.77-21.32-34.13-53.76-76.65-84.42-98.18,1.05,44.1,24.57,94.6,40.64,131.25-20.89-28.66-42.1-50.71-63.42-66.04-.42,20.79,9.34,67.83,33.6,91.14-22.15-.11-37.49,11.23-47.67,24.99h915.7c-11.65-21.21-45.89-43.68-80.85-49.35,30.55-28.03,84-82.42,93.76-103.53-25.62-9.56-73.5,13.44-116.65,54.08,31.71-65.41,51.56-126.74,48.51-158.55-39.58,19.21-65.73,72.87-78.43,95.23,13.23-45.99,36.75-114.24,33.92-167.37h0Z"/>
        </g>
        <g>
          <path class="cls-2" d="m3391.71,2940c-1.16-4.52-2.31-9.03-3.47-13.54-63.21-4.2-122.96-71.51-167.9-170.83,55.44,50.29,112.03,73.81,166.22,164.22-11.55-44.31-23.31-88.62-35.49-132.93-61.53-7.03-119.6-73.5-163.49-170.52,52.71,47.77,106.36,71.4,158.03,151.09-12.7-45.26-25.93-90.62-40.01-135.87-62.47-5.35-121.48-72.35-166.11-170.73,54.07,48.93,109.09,72.55,161.91,157.18-13.86-44.2-28.35-88.41-43.89-132.51-62.79-6.4-132.61-87.04-184.8-144.58,45.05-3.05,99.54,23.31,180.71,132.82-12.5-34.97-25.52-70.03-39.17-105-31.61-30.34-64.16-112.03-97.55-234.89,46.93,38.33,87.57,103.43,109.72,246.33,15.23,36.86,29.4,73.4,42.63,109.73,19.43-45.47-11.44-202.55,35.49-199.5,14.28,67.72,25.41,196.24-34.33,202.54,17.54,48.3,33.39,96.07,48.2,143.43-5.46-77.28,14.59-152.77,39.37-180.39,14.18,66.99,25.1,193.62-32.65,202.34,13.86,45.36,26.67,90.41,38.96,135.24,1.68-76.55,31.6-147.32,61.11-169.37,7.14,66.26,4.31,188.58-56.7,185.43,9.66,36.01,19.01,71.82,28.24,107.62.84-77.7,31.29-150.05,61.11-172.41,7.24,66.67,4.2,190.05-57.75,185.43l2.42,9.66h-10.82Z"/>
          <path class="cls-24" d="m3692.22,2940v-12.49c46.3-3.89,78.01-66.25,92.5-158.13-31.71,46.51-69.4,68.25-92.5,151.94.1-41.06.31-82.01,1.05-123.06,44.52-6.4,74.97-67.93,89.25-157.71-30.24,44.2-65.73,66.05-88.94,139.86.74-42,1.99-83.9,3.78-125.79,45.57-4.93,76.76-66.88,91.25-158.02-30.98,45.36-67.52,67.2-90.72,145.53,1.89-40.95,4.3-81.79,7.35-122.64,45.67-5.98,82.32-80.53,110.15-133.77-34.13-2.83-69.72,21.52-109.31,122.85,2.62-32.34,5.57-64.79,9.13-97.13,17.75-28.14,26.36-103.63,27.72-217.45-27.61,35.59-45.46,95.76-34.65,227.95-4.3,34.23-7.88,68.04-10.81,101.64-23.1-42.1-30.24-187.53-64.68-184.7,2.31,62.69,18.69,181.65,64.47,187.53-3.78,44.62-6.51,88.83-8.51,132.72-10.71-71.61-40.11-141.43-63.94-167.06,2.31,62.06,18.38,179.34,63.1,187.32-1.68,41.89-2.63,83.58-3.15,125.16-15.86-70.87-51.76-136.29-78.01-156.76,7.35,61.32,32.97,174.51,77.91,171.67-.42,33.28-.53,66.36-.53,99.54-15.54-71.92-52.08-138.81-78.65-159.49,7.45,61.64,33.29,175.88,78.65,171.57v8.93h8.09Z"/>
          <path class="cls-13" d="m3474.35,2940c-.11-4.83-.32-9.76-.52-14.6,61.95-4.62,101.74-77.49,117.18-185.01-40.53,54.39-90.09,79.91-117.39,177.77-1.68-47.99-3.15-95.97-3.99-143.96,59.43-7.56,97.65-79.49,112.87-184.48-38.53,51.66-85.26,77.18-113.19,163.48-.74-49.03-.95-98.07-.42-147,60.9-5.78,100.07-78.33,115.5-184.8-39.48,52.92-87.57,78.43-115.29,170.1.74-47.88,2.2-95.66,4.62-143.43,60.9-6.93,106.79-94.29,141.75-156.45-45.89-3.36-92.5,25.09-141.12,143.74,1.99-37.91,4.62-75.81,7.98-113.71,22.58-32.86,30.87-121.17,27.72-254.31-35.59,41.58-56.91,112.03-36.64,266.7-4.2,39.9-7.56,79.48-9.98,118.75-32.86-49.14-48.72-219.24-94.71-215.98,5.77,73.29,32.86,212.52,94.5,219.34-3.15,52.19-4.93,103.95-5.67,155.29-17.43-83.68-59.95-165.48-92.93-195.41,5.67,72.66,32.34,209.69,92.71,219.14-.42,49.03.11,97.76,1.16,146.37-24.36-82.84-75.28-159.49-111.3-183.43,12.49,71.82,51.66,204.22,111.72,200.86,1.05,38.85,2.31,77.7,3.67,116.45-23.94-84.11-75.81-162.33-112.25-186.59,12.6,72.14,52.19,205.7,112.87,200.76l.32,10.4h10.82Z"/>
        </g>
        <path class="cls-6" d="m1456.45,2658.18c-27.61,5.35-52.71,79.38-60.8,116.76-1.68-66.36-20.06-121.17-41.48-156.45-11.97,23.73-12.39,84.74-6.93,111.82-14.49-40.74-23.52-83.79-30.14-127.89-10.08,36.22-10.19,93.97-5.67,161.91-14.18-64.16-21.52-125.05-16.06-179.66-25.31,22.89-28.56,83.16-21.42,161.6-12.39-71.09-31.08-129.57-60.38-167.26,2.1,58.07,13.12,113.19,29.09,166.53-18.59-42.52-59.85-99.64-85.37-124.21,9.14,32.23,20.27,66.57,32.03,101.64-2.31,1.68-4.72,3.47-6.93,5.15-15.01-22.99-35.7-52.08-58.48-64.57,4.09,23.21,16.69,53.66,32.86,86.31-25.73,24.57-45.67,52.6-61.95,82.84,28.35-73.19,22.78-147.32,2-221.86-22.26,63.1-35.18,133.45-40.01,209.89-7.14-61.63-20.27-121.17-43.99-176.61-12.49,63.84-14.81,131.46-13.97,200.24-7.24-65.1-17.95-129.99-34.76-194.78-22.99,53.66-32.44,119.91-33.7,193.72-11.44-44.62-27.09-74.86-44.62-98.59,2.84,35.59,10.92,72.45,21.53,109.94-35.81-79.9-72.03-119.39-108.68-134.4,14.7,51.35,39.16,102.17,63.63,148.68-18.27-29.19-45.99-65.63-72.24-84,.94,37.7,21,80.95,34.75,112.25-17.95-24.47-36.01-43.37-54.28-56.49-.31,17.85,7.98,57.96,28.77,77.91-19.01,0-32.13,9.66-40.74,21.42h783.3c-9.97-18.17-39.27-37.38-69.19-42.21,26.15-23.94,71.82-70.56,80.22-88.62-21.95-8.09-62.9,11.55-99.75,46.31,27.09-55.97,44.1-108.36,41.37-135.66-33.81,16.49-56.18,62.37-67.1,81.48,11.34-39.27,31.5-97.65,29.09-143.11h0Z"/>
        <g>
          <path class="cls-11" d="m325.81,2798.14c-47.77-33.49-112.03-109.2-240.76-188.58,158.86,140.07,196.24,196.56,260.82,215.77,8.82,12.7,17.32,25.93,25.41,39.58-61.63-32.02-144.48-95.86-286.34-183.33,158.87,140.07,217.88,196.87,296.41,200.55,4.41,7.88,8.61,15.75,12.81,23.83-66.89-29.3-180.28-80.54-324.35-169.36,158.86,140.07,253.57,181.12,332.11,184.8,3.05,6.09,5.99,12.28,8.93,18.58h12.18c-72.98-159.08-184.07-308.28-329.6-398.37,82.43,83.68,160.86,157.29,232.36,256.51h0Zm62.79,141.86c-73.39-26.46-190.57-64.47-318.99-143.64,89.78,79.06,165.27,121.28,228.27,143.64h90.72Zm-127.36,0c-55.55-18.48-117.7-44.1-181.76-83.58,41.16,36.23,79.8,63.31,115.71,83.58h66.05Zm-124.43,0c-22.15-8.4-44.52-17.85-66.88-28.56,16.69,10.4,32.86,19.85,48.4,28.56h18.48Z"/>
          <path class="cls-28" d="m706.44,2872.07c2.83,13.55,5.35,27.4,7.66,41.48-28.88-70.66-54.49-201.08-136.92-378.42,76.02,243.6,90.72,340.41,130.51,404.88h20.69c-1.36-10.29-3.26-21.84-4.2-27.83,82.21-104.79,106.26-254.73,76.44-364.45,2.2,91.25-22.89,252.42-78.12,354.17-.21-1.57-1.78-10.61-2.84-16.91,61.32-154.03,36.96-287.38,9.45-388.29,2.2,89.99,18.9,247.38-12.7,370.23,10.81-159.5-27.61-286.97-102.16-405.41,77.18,193.09,74.13,309.43,92.19,410.55h0Zm-18.9,67.93c-34.44-77.28-77.07-182.49-141.54-321.09,47.77,153.19,77.7,253.05,107.52,321.09h34.02Zm-42.84,0c-39.8-71.08-86.31-159.71-136.29-267.12,36.12,115.6,69.3,201.91,101.01,267.12h35.28Zm-55.86,0c-34.65-56.49-71.19-122.01-106.47-197.61,24.78,79.17,50.4,144.06,75.91,197.61h30.56Zm-58.8,0c-22.05-36.33-43.89-76.55-64.57-121.17,14.18,45.47,29.09,85.58,44.31,121.17h20.27Zm-58.06,0c-13.23-20.27-26.36-41.37-39.06-63.42,10.4,22.47,20.58,43.58,30.66,63.42h8.4Zm553.04,0c18.16-25.41,34.96-48.62,49.66-68.25-20.58,23.52-40.22,46.31-58.9,68.25h9.24Zm-40.11,0c28.04-45.57,52.5-88.93,70.45-125.48-25.62,41.58-53.65,83.89-82.53,125.48h12.07Zm-39.69,0c40.95-66.05,74.24-123.27,85.05-145.43-30.77,49.98-62.79,98.91-94.61,145.43h9.55Zm-24.99,0c39.06-62.69,73.81-125.37,97.97-174.72-38.74,63-77.91,121.48-115.19,174.72h17.22Zm-43.99,0c55.55-92.61,108.05-188.37,122.22-217.35-49.35,80.22-95.23,153.19-136.6,217.35h14.39Zm-21.11,0c40.64-77.6,79.28-165.27,115.61-239.51-55.65,90.51-99.96,170.84-138.39,239.51h22.78Zm-39.16,0c47.04-91.14,86.73-206.01,122.53-278.88-69.4,112.88-109.2,204.43-145.11,278.88h22.57Zm-36.43,0c59.53-92.51,105.21-240.45,120.01-327.28-33.7,85.79-85.36,229.21-138.18,327.28h18.17Zm-31.71,0c66.15-97.86,115.29-252.94,120.33-360.05-23.73,81.59-76.97,254.52-131.99,360.05h11.66Zm332.43,0h-2.41l17.43-19.84-15.02,19.84Z"/>
        </g>
        <g>
          <path class="cls-19" d="m1407.74,2940c-6.93-17.75-13.44-36.86-19.53-56.91,17.64,21.32,35.6,38.74,53.44,56.91h-33.91Zm104.37,0c-2.31-12.6-4.62-25.3-7.03-38.01-62.05-6.61-115.81-89.78-152.67-211.89,50.19,60.79,103.43,90.09,149.52,195.09-10.29-54.81-21.42-109.62-33.39-164.43-62.26-7.98-125.79-108.04-173.35-179.45,45.26-3.67,97.65,28.88,170.1,164.85-9.66-43.47-19.84-86.94-30.87-130.31-29.19-37.69-55.23-139.02-78.85-291.58,43.89,47.67,79.38,128.41,90.3,305.76,12.28,45.78,23.52,91.14,33.91,136.19,22.89-56.49,4.51-251.37,51.24-247.59,8.93,84,9.87,243.49-50.4,251.37,13.76,59.95,25.83,119.17,36.96,178.08.63-95.97,26.67-189.74,53.55-223.97,8.93,83.16,9.87,240.34-48.61,251.16l.94,4.72h-11.34Zm80.85,0c10.4-21.32,21.63-37.8,32.34-47.15.32,14.07.21,30.14-.52,47.15h-31.82Z"/>
          <path class="cls-21" d="m1946.39,2940c4.41-17.75,8.19-36.86,11.44-56.91-14.59,21.32-30.03,38.74-45.36,56.91h33.92Zm-104.27,0c.42-12.6.95-25.3,1.47-38.01,61.11-6.61,103-89.78,122.32-211.89-41.47,60.79-90.51,90.09-121.59,195.09,2.52-54.81,5.78-109.62,9.87-164.43,61.22-7.98,110.36-108.04,147.63-179.45-45.78-3.67-93.45,28.88-146.48,164.85,3.47-43.47,7.45-86.94,12.18-130.31,23.84-37.69,35.39-139.02,37.17-291.58-37.06,47.67-61,128.41-46.51,305.76-5.67,45.78-10.5,91.14-14.38,136.19-31.08-56.49-40.64-251.37-86.73-247.59,3.05,84,25.1,243.49,86.42,251.37-5.15,59.95-8.82,119.17-11.45,178.08-14.39-95.97-53.76-189.74-85.68-223.97,3.04,83.16,24.57,240.34,84.52,251.16l-.11,4.72h11.34Zm-80.95,0c-13.44-21.32-26.98-37.8-39.06-47.15,1.68,14.07,4.1,30.14,7.25,47.15h31.81Z"/>
          <path class="cls-22" d="m1756.76,2940c.31-1.89.52-3.67.84-5.57-1.47,1.89-2.83,3.78-4.3,5.57h3.46Zm-79.38,0c42-24.68,69.72-88.3,82.11-173.88-39.48,52.92-87.57,78.43-115.29,170.1.74-47.88,2.2-95.66,4.62-143.43,60.9-6.93,106.78-94.29,141.86-156.56-45.99-3.25-92.61,25.2-141.23,143.85,2-37.9,4.62-75.81,7.98-113.72,22.58-32.86,30.87-121.27,27.72-254.31-35.6,41.58-56.81,112.04-36.54,266.7-4.3,39.9-7.56,79.48-10.08,118.75-32.86-49.24-48.72-219.24-94.71-215.98,5.78,73.29,32.87,212.52,94.5,219.34-2.84,46.73-4.52,93.14-5.36,139.13h44.41Zm-48.4,0c-19.22-77.91-58.38-151.2-89.25-179.23,3.99,50.08,17.85,130.83,45.88,179.23h43.37Z"/>
        </g>
        <g>
          <path class="cls-3" d="m2494.07,2940c-6.93-17.75-13.44-36.86-19.42-56.91,17.53,21.32,35.49,38.74,53.44,56.91h-34.02Zm104.37,0c-2.31-12.6-4.62-25.3-6.93-38.01-62.16-6.61-115.92-89.78-152.67-211.89,50.19,60.79,103.32,90.09,149.52,195.09-10.39-54.81-21.42-109.62-33.49-164.43-62.26-7.98-125.79-108.04-173.35-179.45,45.36-3.67,97.65,28.88,170.2,164.85-9.66-43.47-19.95-86.94-30.87-130.31-29.19-37.69-55.33-139.02-78.96-291.58,43.89,47.67,79.38,128.41,90.3,305.76,12.28,45.78,23.52,91.14,33.92,136.19,22.99-56.49,4.62-251.37,51.24-247.59,9.03,84,9.87,243.49-50.4,251.37,13.76,59.95,25.93,119.17,36.96,178.08.63-95.97,26.67-189.74,53.66-223.97,8.82,83.16,9.76,240.34-48.62,251.16l.84,4.72h-11.34Zm80.95,0c10.39-21.32,21.52-37.8,32.23-47.15.32,14.07.21,30.14-.42,47.15h-31.81Z"/>
          <path class="cls-23" d="m3032.82,2940c4.3-17.75,8.08-36.86,11.34-56.91-14.6,21.32-30.03,38.74-45.36,56.91h34.02Zm-104.37,0c.52-12.6.94-25.3,1.47-38.01,61.22-6.61,103-89.78,122.32-211.89-41.47,60.79-90.4,90.09-121.48,195.09,2.41-54.81,5.67-109.62,9.87-164.43,61.11-7.98,110.25-108.04,147.63-179.45-45.88-3.67-93.56,28.88-146.58,164.85,3.46-43.47,7.45-86.94,12.18-130.31,23.84-37.69,35.49-139.02,37.17-291.58-37.07,47.67-61.01,128.41-46.41,305.76-5.78,45.78-10.5,91.14-14.49,136.19-30.98-56.49-40.53-251.37-86.73-247.59,3.15,84,25.09,243.49,86.41,251.37-5.15,59.95-8.82,119.17-11.34,178.08-14.39-95.97-53.87-189.74-85.78-223.97,3.05,83.16,24.68,240.34,84.63,251.16l-.21,4.72h11.34Zm-80.95,0c-13.44-21.32-26.99-37.8-38.95-47.15,1.68,14.07,4.09,30.14,7.14,47.15h31.82Z"/>
          <path class="cls-15" d="m2843.09,2940c.31-1.89.63-3.67.84-5.57-1.37,1.89-2.84,3.78-4.31,5.57h3.47Zm-79.38,0c42-24.68,69.83-88.3,82.11-173.88-39.48,52.92-87.57,78.43-115.18,170.1.63-47.88,2.1-95.66,4.51-143.43,60.9-6.93,106.78-94.29,141.85-156.56-45.99-3.25-92.61,25.2-141.22,143.85,2.1-37.9,4.72-75.81,7.98-113.72,22.58-32.86,30.87-121.27,27.72-254.31-35.49,41.58-56.8,112.04-36.54,266.7-4.3,39.9-7.56,79.48-10.08,118.75-32.86-49.24-48.72-219.24-94.71-215.98,5.77,73.29,32.97,212.52,94.5,219.34-2.83,46.73-4.51,93.14-5.35,139.13h44.41Zm-48.3,0c-19.32-77.91-58.49-151.2-89.36-179.23,3.99,50.08,17.85,130.83,45.99,179.23h43.36Z"/>
        </g>
        <g>
          <path class="cls-7" d="m4200,2871.01c-49.98-18.16-105.63-72.03-159.18-148.78,53.34,33.81,102.38,47.67,159.18,96.07v52.71Zm0-102.37c-8.4-16.49-16.8-32.97-25.31-49.45-60.58,10.71-136.39-51.24-208.42-154.24,65,41.05,123.38,52.71,197.3,132.61-26.25-50.61-52.92-101.01-80.33-151.1-61.11,13.02-138.08-49.25-211.05-153.82,66.57,42.1,126.21,53.34,202.86,138.81-26.98-48.93-54.6-97.55-83.05-145.84-61.74,11.86-153.2-63.52-220.6-116.44,41.89-17.74,101.74-3.05,213.04,103.64-22.78-38.33-46.09-76.44-69.93-114.24-39.48-26.78-95.87-114.87-165.9-252.42,56.59,31.5,115.5,97.23,181.02,262.29,26.04,39.69,50.82,79.27,74.76,118.86,4.2-60.8-74.02-240.35-28.45-251.27,34.65,77.07,85.26,228.37,30.45,254.63,31.71,52.6,61.64,105.21,90.51,157.6-29.3-91.35-33.71-188.48-18.8-229.53,34.33,76.34,84.21,225.43,32.03,253.78,27.3,50.3,53.55,100.49,79.17,150.68-22.36-92.61-15.85-187.11,5.25-222.91,1.79,5.04,3.67,10.5,5.46,16.17v224.38c-.52.11-1.05.32-1.57.42l1.57,3.15v24.25Z"/>
          <path class="cls-9" d="m4200,2448.81c-4.83-17.01-9.66-33.92-14.28-50.92,5.04-2.42,9.87-5.36,14.28-8.71v-105.63c-8.4,25.62-14.49,58.9-17.64,102.06-9.87-36.65-19.21-73.5-27.83-110.57,11.23-38.22-8.4-124.84-52.92-250.22-20.79,50.51-19.11,124.11,48.3,264.7,8.4,39.38,17.64,78.01,27.51,116.02-46.51-36.54-114.56-193.2-157.29-175.66,28.35,67.83,97.44,191.62,158.13,178.92,6.93,26.46,14.18,52.71,21.73,78.75v-38.75Zm0,75.7c-41.16-59.32-93.56-107.73-127.89-123.06,23.73,56.7,75.92,152.56,127.89,175.03v-51.98Zm0,110.46c-32.55-28.67-64.78-48.72-87.78-55.12,19.21,36.12,52.5,87.78,87.78,122.33v-67.2Zm0,89.67c-16.49-10.71-31.6-18.16-44-21.52,10.92,20.48,26.25,45.89,44,70.46v-48.93Z"/>
        </g>
        <g>
          <path class="cls-12" d="m1013.57,2940c-34.02-20.16-70.46-68.67-63.63-106.15,39.9-14.81,94.08,30.55,105.52,76.75-.84-21.53-.53-43.16.73-64.78-35.49,11.76-104.89-78.23-86.83-129.05,37.9-6.09,80.22,37.07,91.66,80.01,1.58-11.86,3.47-23.83,5.67-35.8-37.06-1.05-91.35-93.87-68.46-139.23,36.02-.52,70.98,41.27,81.06,82.22,3.57-13.44,7.35-26.88,11.55-40.32-33.07,6.41-86.73-82-65.31-124.42,38.43-.52,75.49,52.81,75.18,94.5,4.62-13.23,9.45-26.46,14.7-39.69-.21.32-.52.52-.84.84-34.34.1-72.77-98.6-43.47-134.5,35.39,7.66,61.43,58.9,59.12,98.07,3.05-6.72,6.09-13.55,9.13-20.37-25.3-27.72.11-120.75,44-124.22,25.3,32.45,15.75,89.77-10.61,114.45,21.95-10.92,47.88-13.86,65.73.11,3.05,55.33-71.09,96.08-107.1,57.64-3.78-16.28,7.88-34.55,25.52-47.88-4.94,1.68-10.19,2.31-15.65,1.68-.31-.21-.63-.52-.84-.74-34.12,91.14-56.91,181.86-64.05,272.06,10.82-20.37,31.19-39.79,53.03-48.93-13.23-1.58-25.41-6.61-34.65-16.07,4.62-60.8,93.56-91.66,128.31-43.16,2.41,23.83-24.57,46.62-55.86,55.65,2.41.73,4.83,1.68,7.14,2.84,13.86,59.43-53.86,122.22-100.27,93.76-.42,18.9-.1,37.91,1.05,56.81,15.02-37.27,65.73-75.6,101.95-57.23,9.87,42.95-32.76,77.6-52.39,85.16h-111.09Zm97.65-289.38c10.4-52.71,93.45-68.25,119.81-21.1-.53,38.75-88.52,61.53-119.81,21.1h0Z"/>
          <path class="cls-17" d="m964.64,2940c29.72-16.59,61.64-56.59,55.65-87.47-34.97-12.18-82.43,25.2-92.4,63.21.73-17.75.42-35.49-.74-53.34,31.08,9.66,91.88-64.47,76.12-106.26-33.18-5.15-70.24,30.55-80.32,65.83-1.36-9.77-3.05-19.64-4.93-29.4,32.44-.95,80.01-77.38,59.95-114.77-31.5-.42-62.16,34.02-71.09,67.73-3.05-11.02-6.41-22.15-10.08-33.28,28.98,5.35,76.02-67.52,57.22-102.38-33.6-.53-66.15,43.47-65.84,77.7-3.99-10.82-8.3-21.63-12.91-32.55.21.21.53.42.74.63,30.13.1,63.73-81.16,38.11-110.88-30.98,6.41-53.76,48.62-51.77,80.85-2.62-5.56-5.35-11.13-8.09-16.8,22.26-22.78,0-99.43-38.43-102.27-22.26,26.67-13.86,73.92,9.24,94.29-19.22-9.03-41.9-11.45-57.65.11-2.62,45.46,62.37,79.17,93.98,47.46,3.26-13.44-6.93-28.45-22.36-39.48,4.3,1.37,8.82,1.89,13.65,1.37.32-.11.52-.32.74-.63,29.92,75.18,49.88,149.94,56.17,224.28-9.55-16.8-27.4-32.86-46.51-40.42,11.55-1.26,22.26-5.46,30.34-13.23-3.99-50.08-81.9-75.5-112.45-35.59-2.1,19.74,21.53,38.43,49.03,45.88-2.2.63-4.3,1.37-6.3,2.31-12.18,49.03,47.25,100.8,87.78,77.28.42,15.65.1,31.29-.84,46.83-13.23-30.77-57.54-62.27-89.35-47.15-8.61,35.38,28.66,63.84,45.88,70.14h97.44Zm-85.68-238.45c-9.03-43.36-81.9-56.18-104.89-17.33.42,31.92,77.59,50.72,104.89,17.33h0Z"/>
          <path class="cls-16" d="m612.15,2940c-.73-4.72-2.2-9.24-4.62-13.34-13.86-1.15-27.4,4.31-38.85,13.34h43.47Zm-63,0c20.69-24.26,33.6-70.56,14.28-94.18-33.18,2.83-58.28,42.21-57.65,75.39-4.2-8.3-8.61-16.59-13.34-24.78,30.77-7.88,54.18-85.36,24.15-113.82-30.24,6.51-49.56,43.47-48.3,74.97-6.09-9.03-12.6-18.06-19.32-26.99,29.3-1.68,53.13-75.91,25.1-102.37-32.34,6.93-50.72,52.6-40.43,82.64-7.03-8.61-14.28-17.22-21.84-25.83.31.1.63.31.94.42,28.77-6.51,37.48-85.15,4.31-105.52-27.83,12.28-37.38,54.28-26.15,82.21-4.1-4.3-8.3-8.61-12.49-13.02,14.6-24.89-28.77-87.26-66.36-81.38-13.55,28.35,8.19,67.93,36.12,80.74-21-3.68-43.37-.84-55.02,12.7,10.61,40.53,82.43,55.86,103.43,21.1-.73-12.49-14.81-23.41-32.76-29.72,4.52.21,9.03-.31,13.55-1.78.11-.21.32-.42.42-.74,50.4,59.43,91.03,120.64,118.55,184.49-13.86-12.71-35.6-22.78-56.07-25.2,10.71-3.67,19.74-9.66,25.2-18.27-18.38-43.05-100.17-48.4-117.81-6.61,3.68,17.64,31.71,28.98,60.16,29.51-1.89,1.05-3.67,2.1-5.35,3.46.42,7.98,3.05,15.65,7.24,22.58h139.44Zm-120.33-114.87c-21.21-36.12-94.5-31.4-105.31,7.67,9.66,27.93,88.83,27.61,105.31-7.67h0Z"/>
        </g>
      </g>
      <rect class="cls-29" width="4200" height="2940"/>
    </g>
  </g>
</svg>