<?xml version="1.0" encoding="UTF-8"?>
<svg id="Layer_2" data-name="Layer 2" xmlns="http://www.w3.org/2000/svg" xmlns:xlink="http://www.w3.org/1999/xlink" viewBox="0 0 4200.68 2940">
  <defs>
    <style>
      .cls-1 {
        fill: url(#linear-gradient-4);
      }

      .cls-1, .cls-2, .cls-3, .cls-4 {
        fill-rule: evenodd;
      }

      .cls-2 {
        fill: url(#linear-gradient-2);
      }

      .cls-3 {
        fill: url(#linear-gradient);
      }

      .cls-5 {
        fill: none;
      }

      .cls-4 {
        fill: url(#linear-gradient-3);
      }
    </style>
    <linearGradient id="linear-gradient" x1="2716.93" y1="1594.85" x2="2716.93" y2="729.86" gradientUnits="userSpaceOnUse">
      <stop offset="0" stop-color="#ff6e6e"/>
      <stop offset="1" stop-color="#6121b5"/>
    </linearGradient>
    <linearGradient id="linear-gradient-2" x1="3157.3" y1="1594.85" x2="3157.3" y2="729.86" gradientUnits="userSpaceOnUse">
      <stop offset="0" stop-color="#ff6e6e"/>
      <stop offset="1" stop-color="#8836cc"/>
    </linearGradient>
    <linearGradient id="linear-gradient-3" x1="1654.07" y1="1594.85" x2="1654.07" y2="644.7" gradientUnits="userSpaceOnUse">
      <stop offset="0" stop-color="#ed5677"/>
      <stop offset="1" stop-color="#24149e"/>
    </linearGradient>
    <linearGradient id="linear-gradient-4" x1="1427.89" y1="1564.5" x2="1427.89" y2="644.7" gradientUnits="userSpaceOnUse">
      <stop offset="0" stop-color="#ed5677"/>
      <stop offset="1" stop-color="#6f35cc"/>
    </linearGradient>
  </defs>
  <g id="Layer_1-2" data-name="Layer 1">
    <g id="MOUNTAINS_Group_" data-name="MOUNTAINS &amp;lt;Group&amp;gt;">
      <g>
        <polygon class="cls-3" points="4200 987.32 4117.58 998.45 4089.75 1031.73 4056.46 1039.19 4043.45 1059.56 3999.03 1076.25 3952.73 1068.8 3915.66 1105.86 3858.23 1116.99 3837.85 1102.19 3784.2 1102.19 3713.74 1091.06 3534.09 1078.04 3493.35 1083.6 3434.13 1063.23 3332.28 1055.88 3321.15 1052.1 3245.24 1015.14 3187.8 1009.58 3119.24 978.08 3050.77 926.21 2998.91 924.32 2861.78 800.31 2834.06 798.42 2802.56 778.05 2763.71 766.92 2728.43 735.42 2674.77 729.86 2622.9 778.05 2504.36 796.53 2419.2 926.21 2387.7 922.53 2372.89 954.03 2345.07 957.71 2293.2 937.34 2250.67 954.03 2191.35 1005.9 2137.69 1002.12 2082.05 1039.19 2045.09 1035.51 1867.22 1205.93 1839.49 1209.6 1820.91 1226.3 1774.6 1237.32 1685.77 1205.93 1633.9 1228.08 1600.52 1274.39 1578.36 1274.39 1550.53 1322.58 1506.12 1341.06 1439.44 1465.17 1404.27 1489.22 1370.88 1465.17 1339.38 1489.22 1233.86 1594.85 4200 1594.85 4200 987.32"/>
        <path class="cls-2" d="m2674.77,729.86l1.16,12.28,12.49,20.16,11.13.73,10.39,13.86h9.77l-2.1-15.33,6.93-4.09,12.49,9.03h13.23l13.86,27.09-9.03,1.36-7.56-12.49-11.13-.74,3.47,15.33,7.67,1.99,8.29,18.06h9.76l1.37-9.03h8.3l9.03,16.69-9.66,4.94-5.56-4.94-9.77,4.2v11.13l-9.77.63-3.46-18.06-8.3-.63-4.83-9.77-11.13-2.73v14.6l-13.23,1.36v8.3h9.03l1.36,12.49,15.33,1.47,6.19,14.49,18.8,3.47,1.36-11.76,13.23.73,3.47,17.32,17.33,6.93,4.2,9.77,9.03,2.1v-12.5l8.3-4.93-6.93-15.96-8.3,2.1-7.67-22.26,4.83-6.19-4.83-18.8,7.67-4.2,9.03,13.97,11.13.63,5.57,14.59h9.66l-6.93-29.82,13.86,4.2,5.57,13.86,11.87-7.66,6.19,12.49,17.43,2.83,6.93,17.33,18.69,5.57,27.09,38.22,28.56,11.13,13.86,20.06,19.43-1.16-137.13-124.01-27.72-1.89-31.5-20.37-38.85-11.13-35.28-31.5-53.66-5.57Zm867.3,381.67l24.26,9.66,133.35,13.23,29.93-7.67,70.77,11.86-81.9-22.26-56.91,9.03-119.49-13.86Zm-296.83-96.39l24.57,35.28,22.89,7.56,22.26,15.96,39.58,7.67-122.96-4.83-54.18-12.49,69.51,25.72,91.66,11.02,127.05,23.63h-113.93l182.7,12.49-25.73-19.42-31.92-1.37-68.78-21.53,71.61,4.83-100.07-19.43,113.82,3.36-59.22-20.37-101.85-7.35-87.05-40.74Zm905.2,289.38l-95.13,5.56,16.69,7.04,58.28-2.1-130.51,30.55,142.38,2.73,29.82-14.6-38.12-2.73,66.15-14.6v-25.31l-49.56,13.44Zm-11.13-223.55l-11.02-7.04,1.37-12.49,9.03-7.56,11.13,18.06-10.5,9.03Zm60.69,29.82l-25.2,2.1-.74-10.4,25.93-13.23v21.52Zm-31.5,43.05l-31.19,11.13-9.03-15.96-17.43-3.46,2.84-17.43,27.09,6.93,4.1,9.77,24.36,2.1-.73,6.93Zm-282.66,50.72l-24.25,4.83-2.84-10.4,15.96-6.93,11.13,12.5Zm94.5,34.76l-20.9-6.93-4.09,8.3-28.56-12.5-12.5,11.13,45.89,11.13,5.56,14.49,43.05,4.2,4.83-20.79-30.55,9.03-2.73-18.06Zm-27.61-170.52l39.37,41.69-23.62,10.39-15.96-5.56-13.86,15.96,27.72,22.89-25.62,22.26-25.72-7.66-16.69,9.03,18.06,11.13h29.92l15.96,13.23c2.94.94,1.89.63,4.83.63l16.69-9.66-23.62-20.16,20.79-12.49v-18.06l20.16,4.2-6.19,23.63,22.89,18.69,22.26.73,5.46,24.26,32.66,13.96,1.47,2,19.42,16.06,24.99,2.73,4.83-12.5-29.82-1.05-6.93-15.65-10.5-2.73-6.93-21.53,24.36-4.93,5.57-13.86-2.1-.73-40.32-.63-33.29.63-12.49-18.69,9.66-15.33,12.5,14.59,18.79,1.37-6.93-33.28h-2.1l-29.93-1.37,2.1-5.56,4.93-24.36-26.46-16.8-46.3-7.45Zm-147.42,162.54l-45.15-17.43.63-11.13,27.09-.63,2.1-12.5,9.03,3.47-1.37,18.06,16.69,3.47-9.03,16.7Zm-166.74-57.02l-12.49-11.76-14.6-3.47-1.36-9.76,15.33,3.46,38.85,6.3,20.16-9.76,18.06,1.37-23.63,13.23-34.02-.74,9.03,11.86-15.33-.74Zm-1015.67-396.27l-31.81,18.27-12.81-.63-17.43,14.17-4.2,14.28-18.69,11.44-13.86,4.52v-5.88l14.49-2.41,6.3-6.3-4.83-4.2,8.61-7.56,2.84-10.5h-13.86l-5.57,5.99-8.4-2.84,1.05-6.61-18.06,1.79-2.31-5.04,118.54-18.48Zm-279.4,291.9l-13.86,22.26-23.31,12.18-10.4,8.29-6.3-.31-4.52,6.61-17.32,7.98,2.41,3.47,15.33-4.52,17.64-11.86,5.88-6.51,1.47-.42,19.43,1.47-5.25,6.51,10.08,1.05,9.77-14.17-5.57-11.13,3.78-11.87,4.51-1.05,9.77-13.86-4.2-3.78-4.52,8.61-4.83,1.05Zm66.36-89.35l-12.18,16.27-8.4-1.68-7.24,9.34,5.88,7.98,11.13-7.98,8.29-7.67-1.78-4.09,5.98-8.09-1.68-4.09Zm-203.91,80.53l-11.13-3.15,1.05-1.37,5.25-13.23,4.2-.32-3.47,8.29,7.56,3.15-3.47,6.61Zm-61.42,33.71l22.15,1.68,13.54-12.07,17.43-1.05,11.13-11.86,11.13,1.78-28.14,16.7-7.67-2.84-10.81,11.13,3.15,5.57-17.33,12.18-11.86-3.15,9.45-9.76-15.64-2.42,3.47-5.88Zm-19.85-28.88l-10.08-7.25,10.81-4.83,3.47,6.93-4.2,5.15Zm13.02-63.84l7.45,14.59-14.17,11.76,1.05,6.61,9.66-2.41,12.18-1.36.32-5.99,18.48-.31,7.98-10.08,10.71-9.03-53.66-3.78Zm149.84,55.54l-10.39-11.44,4.2-9.76,5.57,6.3-2.42,4.51,5.15,6.93-2.1,3.47Zm5.67-120.33l-18.9,18.27,5.88,7.03-5.15,9.34,6.51,8.72,6.3,13.13-8.29,13.23,4.09,10.08,15.65-9.03v-10.08l31.6-2.83,6.93-18.06-18.06-12.5,25.3-6.93-51.87-20.37Zm449.61-52.5l3.78,9.03,16.27,8.61,6.61,30.56,8.4,8.72.31,2.41,8.3,19.42h3.89v-9.03l-5.25-2.73-5.57-21.21-8.29-7.66-.32-2-.74-9.45,5.15-3.46-1.68-10.39-20.47-3.78-3.46-11.13-6.93,2.1Zm-164.64,366.66l-159.39,1.36-79.9-34.33h-1.37l-66.47-1.57,34.55,39.06c1.47.53,5.77.53,7.24.73l214.62,20.79,19.11-11.76,31.92-.74-9.66,10.82,39.9,21.1,4.51-9.66,14.28-.74-17.74-9.66,10.08-7.98,40.95-7.35-66.36-2.42,3.15-5.88-19.43-1.78Zm-145.84-60.06l-81.59-1.05,226.06,22.89-122.95-16.28,6.93-4.52-1.05-.31-27.41-.74Zm306.28-19.42l-55.23-2.1-7.25-2.73h-1.05l-41.37,4.83-126.73-4.52v11.13l-7.66.31-.63-21.52,15.23-6.93-6.62-10.08,29.5-11.86,21.53-6.93v-1.36l1.78-14.28v-1.05l.74-11.76,5.88-10.08v-20.79l6.61,23.94,3.46,28.77.32,1.47,22.26,22.15.32,1.05,4.83,15.33,15.65,2.41,2.41-12.49h8.72l5.88-.73v-1.68l4.83-12.91,2.84-.32h11.76v4.83l5.57,12.18,15.02,2.84.31.94,5.88,8.09h1.78l16.28,4.1,37.17,9.77Zm2.42-208.74l6.93,21.21h3.88l.32-9.03,3.15-2.83-1.78-12.08-12.5,2.73Zm-15.96,37.91l-.74,14.49,3.15,7.04,4.83-9.03-.63-13.54-6.61,1.05Zm-7.67-50.72l-14.91-1.47-5.88-17.95,2.1-12.6,6.93,14.6,9.66,1.47,2.1,15.96Zm124.01,177.45l-13.55-3.89v-1.05l-2.41-9.03-14.91-4.09-4.94-20.47,6.62-2.84,4.83,12.92,14.6-3.57,9.77,32.03Zm150.57,2.1l-2.62,2,3.26,11.55,10.5,5.15,2.52,6.93,8.4,3.46-2.94-20.26-8.72,1.68-2.94-10.19-7.45-.31Zm2.52-29.92l6.83,6.61,6.61-1.05,8.61,14.8,12.91,6.51,1.16,8.93,6.51,1.89-.42-15.64-11.76-4.83-2.1-18.59-17.85-10.81-7.66,5.77-6.93-7.98-8.72-1.36,2.31,10.6,11.45,2-.95,3.15Zm22.57-90.62l-11.02,6.93,11.02,16.69,1.47,15.96,10.4,2.1,19.42,23.62,15.33,2.73-9.03-16.7,15.96,1.47,30.55,44.41,18.69,11.76,15.33,16.69,17.33,5.57,6.3,15.33,4.83,2.73,21.53,15.33-25.72,3.46-22.89,4.09h-4.83l-159.07-3.47,14.6,6.93,118.12,4.2,42.31,14.59h7.66l163.17,12.49-142.38,4.2,215.99,13.86,29.92-.74,30.56-6.93-115.29-9.03-18.06-8.3,56.28-5.57,17.32-8.3,48.62-2.83-159.71-11.76-27.09-11.87-17.43-2.73-13.13-9.76-16.7-2.73-13.23-13.23-27.72-4.83-7.66-8.4-14.6-11.76-6.93-9.76-18.06-2-17.43-16.06,2.84-14.6-10.4-6.19,29.19-2.83,9.66,12.18,15.33.42,1.37,2.73,15.96,13.86,8.3-.63-1.37-2.1-15.23-17.43-22.26,1.47-5.56-18.79-20.16-9.66-13.86.63-8.3-7.66-15.33-3.47.74-13.86,29.82,9.77v-8.4l-15.23-4.83-6.3-10.39-22.26,2.1-2.73-13.23h-16.69l-7.66,5.57,13.23,15.96-11.76,2.1-16.07-11.13Zm1182.93,585.37h-315l-32.03-47.14-27.72-40.22-16.69-34.75-44.42-61.11-32.03-51.45h-54.18l-36.12,11.13-33.28-8.3,52.82,31.92,22.15,24.99,20.89,9.77,12.5,31.92,5.56,8.3,58.28,124.95h-24.99l-49.98-66.57-24.99-24.99-2.84-4.2-38.85-54.18,59.75,149.94h-102.8l-41.69-49.88-23.62-15.33-27.83-34.75,44.52-24.99-63.94-5.56h-105.52l13.86-19.43h95.86l45.88-19.43,55.55-15.33-120.85-1.36h-86.1l-73.71-15.23h-83.27l-136.18-6.93,156.97-19.53-119.49-13.86-111.09-2.73-73.6-26.46,59.75,36.12,59.75,30.56h-51.45l76.44,23.63,134.71,15.33,77.81,19.43-57.02,4.2,88.94,141.54h-58.38l-163.91-143.01,46.93,66.15-106.57-52.18-84.74-77.81,49.98,79.17,30.56,73.6,27.72,54.07h-129.15l-151.31-237.62,59.64,207.9-99.33-218.08-.63-2.1-8.4-9.77-1.37-2.1-6.3-11.13.74-23.52-8.3-13.96-11.87-4.83-4.2-6.3-14.49-11.03-2.1-2.1-2.1-13.96-9.76-3.47c-2.94,0-1.89.31-4.83-.63l-1.36-11.87-20.9-2.1-25.62-26.98,173.57-2.84,8.4-4.51,6.51.73,4.51-3.15-20.47-24.36,18.48,4.94,52.08-2.42.63-7.66h8.4l-1.47-24.99v-2.84l-8.29-14.6-1.05-17.01,9.34-.63.74,6.93,10.4,5.57,4.93,12.49,11.03,9.66,11.86,26.46,11.76,12.5,2.84,2.1,9.66-.74,5.57,5.57,13.97,9.66v2.84l1.37,13.86,15.22,12.5,5.56,13.96-14.59,2.73,15.96,10.39,15.33,2.84,9.76,7.56,19.43,11.87,11.76,12.5,15.96,7.67.74,2.1,6.93,12.49,16.69,8.29-20.89-40.32-4.83-3.47-.63-3.47-4.94-15.22h-2.1l-7.56-3.47-.74-2.84-2.1-6.19,62.48,4.83,261.24,10.4,20.06,6.3,2.83-4.93,16.69.74,6.2,19.42-252.11,4.94,57.65,13.12h2.1l187.53,9.77h73.6l-121.59,16.69-59.64,3.47,178.5,4.1,156.87-16.59-78.44-1.47,49.35-8.3-76.44-.74,91.66-13.12,37.49-10.5-35.39-1.37-9.03-6.93-19.42,3.47-6.3-4.2,5.57-4.83h2.1l25.73,2.84,11.76-7.04,15.33,2.84h4.1l17.43-2.1h23.62l-9.76,9.77,16.7,11.76,1.36,18.06-14.59,3.47,76.44-6.19,3.47-13.23-2.84-.74-36.12.74,17.43-6.93,21.52,1.37,11.76-4.83,6.93,10.39h4.2l20.9-1.37,3.46,13.13-32.65,4.2-7.66,15.33h-2.84l-54.07,5.56v7.56l26.35-1.36,6.19,9.03h216.72l52.08,110.46,32.02,24.99,31.92,45.88-26.46-62.58-11.03-40.22-13.96-20.89,4.2-2.73,45.88-24.99,31.92,12.5,27.72-4.2,23.62-1.36,18.06-6.93h19.21v229.74Zm-1324.58-699.93l-24.25-7.56.63,9.66,13.23,6.93,2.73,13.23,11.87,2.73,4.83,20.9-8.3,1.36,1.37,21.53,9.77,14.59,15.96,2.1,9.03,25.72,14.59,9.03v2.73l2.73,13.23-3.47,8.3-11.76-7.67v11.87l10.4,15.22,11.13,23,22.16,4.1-20.06-25.62,3.46-6.3.63-17.33,2.84-9.03-12.49-23.62-12.5-9.03,1.37-15.96,18.06-4.2,4.1,16.69h9.03l.74-20.16-19.42-11.13-7.67-20.16-18.69,4.94-14.59-25.72-9.03-1.68-2.1-14.28-6.3-8.4Zm-71.5,136.4l-7.98-10.71,1.05-1.47,3.78-11.76-6.61-5.57,2.84-12.18,9.66-3.78,2.83,22.89,11.76,10.4-.31,1.47v21.1l-10.82-16.27-7.24-2.1,1.05,4.2v3.78Zm14.59-109.52l-5.56.63,6.41,8.93-1.68,5.04-5.04-1.58-.21,5.04,2.94,6.4v5.78l6.93.42,2.31,6.61,5.15,1.99-.1-10.6-5.99-3.89,1.79-8.51,3.99-.31-.31-10.29-6.3.94-4.31-6.61Zm25.83-59.96l2.31,6.83,4.52.84.63-6.93-7.45-.73Z"/>
      </g>
      <g>
        <polygon class="cls-4" points="3308.13 1594.85 0 1594.85 0 644.7 41.06 661.4 80.01 713.27 115.19 726.18 167.06 755.79 205.9 748.44 268.9 763.25 302.19 813.23 344.82 837.27 383.67 824.36 415.17 855.86 448.56 868.77 474.49 887.36 539.28 887.36 581.91 848.4 611.52 852.08 635.57 828.03 683.76 829.92 728.18 887.36 765.24 907.73 794.85 944.69 865.31 992.88 893.02 970.62 939.33 978.08 967.16 957.71 1013.46 952.14 1020.81 920.64 1050.42 900.27 1094.94 900.27 1144.92 850.29 1163.4 800.31 1185.66 789.18 1198.68 759.47 1243.1 744.66 1278.27 754.01 1307.88 746.55 1337.6 694.68 1378.34 691.01 1394.93 663.18 1450.47 657.62 1561.66 689.12 1661.62 816.9 1709.82 831.71 1744.99 870.66 1793.19 885.47 1809.78 911.4 1813.56 944.69 1852.41 959.49 1876.45 959.49 1920.98 979.97 1935.78 1013.25 1967.28 1039.19 2004.35 1087.38 2067.24 1111.43 2095.07 1148.49 2143.16 1166.97 2187.67 1209.6 2233.98 1220.73 2289.52 1215.17 2354.31 1233.65 2408.07 1209.6 2478.42 1215.17 2519.16 1267.04 2556.22 1287.41 2602.53 1326.26 2665.53 1333.71 2687.69 1357.76 2735.88 1385.48 2821.04 1389.26 2861.78 1374.45 2895.17 1396.61 2954.39 1461.5 3035.86 1496.67 3115.56 1491.11 3195.15 1544.76 3235.89 1550.33 3308.13 1594.85"/>
        <path class="cls-1" d="m0,783.3v-138.6l41.06,16.69,38.95,51.87,35.18,12.92,51.87,29.61,8.09,21-17.64-13.86h-19.43v24.04l13.02,1.89,17.53,39.79,14.81,6.51,2.84,24.99,11.02,12.08,11.13-12.08,18.59,17.64-9.24,13.86,10.18,19.43,18.48-3.68,15.75,13.86,4.62,23.2-6.51,12.92-12.91-13.86-12.07-2.83,2.84,33.39,11.97,15.75,11.13,27.72-25.93-18.48-16.7-26.88-16.59-11.97-16.7-34.33,20.37,19.53,19.43-13.02-12.91-26.88-20.37-12.91-19.53,9.24-16.59-12.91-12.07-23.21-35.18-29.61,1.78-20.37,17.64,10.19-9.24-35.18,7.35-14.81-10.19-19.53-12.91,2.84-24.05-35.18-8.4,5.56,16.69,29.61-9.24,20.37-20.37-29.61-13.97-2.83-11.97-45.36-12.07,15.75,9.24,27.82-10.19,24.04,9.35,18.48,11.97-28.66,13.02,26.88,20.37,2.73v33.39l-13.02,8.3.94,37.06,19.43,16.59,4.62,38.96-5.57,15.75,6.51,31.5-11.13-13.02-17.53-63.84-15.75-15.75-9.24-27.82-12.07-8.3v-36.12l-20.48-22.26Zm2618.28,774.27l-7.66-14.6,8.4-4.2,13.86,25.73-14.6-6.93Zm115.29-127.89l-23.63-14.49-1.36-7.03-15.96-7.56v-7.67l11.13,4.83,15.96-2.73,6.93,16.59,6.3,2.84.63,15.23Zm111.19,108.36l-.74-15.96,9.77,2.1,1.99,18.79-11.02-4.93Zm-100.8-47.14l-17.32-21.63-13.23-2.73v-10.39l18.06,3.47,1.47,2.1,19.42,20.16h8.3l1.37,2,4.93,13.97-22.99-6.93Zm-313.22-52.82l-13.86-7.66-20.16-6.93-20.16-11.13v-2.73l4.2-9.03,14.59,11.02,18.06.74,16.69,15.33,2.73.63,18.8,7.67,3.46,10.39-15.33,1.37-9.03-9.66Zm76.44-2.1l-12.5-6.93-.74-2.1.74-13.23-15.33-13.12-22.89-31.29-24.99-6.3-6.3-15.96,20.16,11.87,2.84-.74,26.35-3.46,22.26,22.89,40.95,8.4,20.79,22.89-23.63-11.76h-18.69l-18.06-7.04-7.66,2.1,28.45,35.49,5.57,1.37,27.09,6.93,2.1,2.1,19.42,17.33.74,2.1-1.36,6.3-20.16-19.53-18.06,2.83-27.09-11.13Zm-161.17-139.65l-8.3.73-9.03-11.76,10.4-9.77,6.93,11.76,25.72,6.3,2.83,12.49-13.23,2.73-.74-8.93-14.59-3.57Zm-928.2-464.94l-6.62,13.86h-2.1l1.36,6.93,2.84,3.15.73,6.3v1.05l6.93,8.29v1.05l3.47,14.59,6.93,7.98v1.36l1.68,7.35,2.52-1.05-3.57-14.28-3.05-3.78v-1.78l1.36-8.29-1.05-7.35-3.46-2.73-5.25,1.36-4.83-9.77v-12.49l3.78-5.88,5.57,12.18,3.88.31-1.47-9.66h-2.73l1.05-9.77-7.98,1.05Zm34.86-85.78l-1.05,4.83.21.52,1.26,6.09,2.2,1.05-1.37-6.72.21-2.63-1.47-3.15Zm-5.88-23.62l-3.47-2.1,1.36-3.57-2.41-7.03,1.26-4.31,2,5.56,4.51,4.83-3.47,4.41.21,2.2Zm-14.6,70.03l-4.83-.73-1.05,2.41,3.47,2.62,2.41-4.31Zm-1.36-17.43l-2.94-2.21-.84-5.25-3.05-1.89,3.15-2.83,3.47,6.82,1.79,2.2-1.58,3.15Zm233.73,510.3v9.03l11.13,2.1-4.2-12.49-6.93,1.37Zm276.36,173.67l-15.96-.74-6.19-13.12,12.49,1.36,2.1,4.1,7.56.73v7.67Zm-175.03-79.9l-17.32-8.3-3.47-11.13,5.56.74,15.23,18.69Zm58.38,36.85l-9.66-1.37,1.36-32.02h4.83l3.47,33.39Zm-42.32,2.73l-10.5,3.46-.63,5.56,5.57,9.77-1.47,7.67,16.69,7.56-9.66-34.02Zm281.3-39.59l11.76,16.69h9.03l-2.73-9.03-5.56-.73-2.83-7.56-9.66.63Zm95.76,50.71l-22.89-13.86,2.83-13.97,24.99,8.4,30.56-3.46,21.52,8.29,25.62,15.33h4.93l8.3-4.93h4.83l22.26,7.66-27.09,5.57-35.38-4.83-1.37-5.56-9.03-6.93h-22.26l-.73,15.96,21.53,19.43-6.93,13.86-16.69-22.15-22.89-.74-2.1-18.06Zm-110.35,24.36l-13.97-18.06-17.33-3.57,27.09,39.69,19.42,11.03,9.77,20.89,14.59,9.66-1.47-18.69-13.86-15.96-2.1-13.97h-15.22l-6.93-11.02Zm13.12-181.34l-25.62-11.13-.73,13.23h11.76l17.43,15.96,12.5.73-1.37-10.4-10.5-1.47-3.47-6.93Zm-23.31-171.99l-1.68,8.09,1.05.31,14.28,9.03-.42,14.6,6.61,6.61,1.37,17.32,7.03,9.77,7.98,3.78,1.37-7.56-5.88-4.94v-12.81l10.39,5.15,10.71,20.16,9.45,3.89,3.46,9.34-6.61,5.57-9.76-7.66-5.56,1.78,1.05.63,18.8,18.48,5.88,13.55,8.4,4.51,5.88-5.98-5.88-8.61,7.56-2.1-4.52-17.74,9.45-.63v-10.5l9.66,3.15.32,8.71,10.5,7.24,9.66,9.35,5.57-4.09,9.03,9.03,14.07,1.79-44.52-42.63-48.09-18.48-27.82-37.06-28.77-11.03Zm-35.38,50.4l-4.52-1.37.21-6.09-5.36-4.1-3.36-7.56,6.61,2.84.84,3.68,5.78,5.35,5.25,8.51h2.73l2.1,5.56-3.47.63-.21-3.25-3.26.73-3.36-4.93Zm-52.08-37.48l-5.67-6.72-2.62,1.37,3.99,8.71-1.89,5.35.31.53,6.4,5.57,4.73,2.2,1.68,4.73,2.31-1.26-3.68-8.51-5.67-4.62.1-7.35Zm-11.44-19.64l-6.93-1.36-.52-5.35-3.78-1.37-2.1-4.51-2.41-.53-2.62-2.52-4.2-2.52,1.05-2.31,6.41,3.46h2.1l3.68,5.88,3.78.21h4.73l6.93,10.29-5.25,5.88-.84-5.25Zm-279.41-132.3l-4.51-3.15-4.1-12.49,2.73-6.93,3.78,9.45,6.62,4.83,3.15,13.55-3.78.63-3.89-5.88Zm60.8,33.7l-5.88-2.41-1.78-8.29,5.57-1.05,2.1,11.76Zm34.02-6.61l-7.98,2.84,5.57,15.23,8.29,4.2,3.89,6.93,4.2-.31-4.2-12.18-6.3-2.41-3.47-14.28Zm-27.72,64.26l-6.3-4.83-4.83-13.54,4.83,1.05,4.83,9.66,5.57,2.1-4.1,5.56Zm-7.98,23.62l-4.94,1.05,2.41,8.29,1.05,1.37,8.72,6.62v1.47l.31,5.88,4.52,1.37v-11.13l-5.57-3.78v-7.67l-6.51-3.47Zm-28.14-14.59l-9.45-3.15.73-7.98-8.3-6.62v-9.03l3.05-5.88-6.51-11.13,4.52-.31,14.49,25.31-4.09,3.57,6.61,6.51,4.09.42,4.2,13.12-5.57,1.79-3.78-6.61Zm102.27,7.98l-3.88-6.93,1.57-2.41,6.3,9.34h-3.99Zm30.56,46.93l-3.15-4.52,4.51-1.47,5.67,10.61-5.99,1.26-1.05-5.88Zm9.03-24.68l-6.3.53-1.57-6.61-5.57-3.78.94-4.09,8.82,8.92,2.94-.32.74,5.36Zm60.06,71.82l-11.13-6.93,2.73-7.98-9.66-15.64,1.68-7.56,7.98,7.98.73,8.61,7.66,8.4v13.13Zm50.3,28.87l-8.3-6.93-2.1,4.83,5.56,6.3,2.84,11.03h.95l4.93,1.78,2.42-9.77-5.57-.63-.73-6.61Zm-1.36-46.51l-6.93-11.13-9.77-2.1,2.52,8.3-11.55,7.98,4.94,9.77,6.61.31,6.93-3.46,6.62,12.92,8.61,3.46-5.15-10.81-4.2-3.78-2.73-7.35,4.09-4.09Zm-182.18,7.56l11.13,4.2,6.3,19.42,13.12,13.23,9.77,21.52,20.9,2.84,9.66,18.06,39.59,26.35,11.13,22.89,13.23,11.13,2.73,4.83,18.8,23.62,9.03.74-4.94-13.86-10.4-7.03-9.03-13.86-6.93-6.2,2.1-12.6,24.99,11.13,9.77,15.33h2.73l5.57.63v-11.03l-18.06-15.33-8.3-14.6-19.53-6.19-18.69-20.16,5.57-15.33,13.86,7.67,4.83-12.5-1.99-.73-29.51-2-17.11,22.89-9.66-7.66v-2.1l-2.1-19.42h-2.84l-18.69-9.03-5.57-17.32,10.4-2.1-12.5-21.53-4.83-31.29-21.52-13.86-13.97-36.86-16.59-15.22,2.1,18.69,10.4,7.66,11.76,34.76-4.83,15.96,16.7,11.13,6.93,21.53-16.69-5.56-2.1-10.39-12.7-4.31-3.99,11.86Zm-543.8-194.04l-12.49-4.2-4.2-9.34,2.1-6.93-1.36-9.03,3.15-3.89,2.73,14.28,7.66,5.15v1.05l-1.36,5.56,9.03,3.15-5.25,4.2Zm89.98,34.65l-3.47,10.08h1.37l3.46,2.41,2.42-2.73v-5.57l-3.78-4.2Zm31.61-27.09l-3.89-9.35-5.56,3.46,4.51,8.4,1.05,11.44-4.1,4.52,4.1,9.66,6.61,1.79,4.52,12.81-3.78,10.08,2.42,9.03,4.2,3.15-.73-6.93,3.15-2.83-2.41-6.93v-11.13l-6.3-17.33,4.2-5.25v-9.03l-4.93-.31-3.05-5.25Zm-42-72.87l-3.57,6.62,1.47,11.13,7.56,3.78v-11.13l-3.78-3.47-1.68-6.93Zm-52.19-52.08l-3.47,4.83,3.89,6.61,5.57,7.98,1.05,10.82,7.25,2.42,4.51,10.08,7.24,2.42-4.52-10.4,3.89-8.72-6.93-1.78-.74-12.49,4.83-2.73-4.83-13.96-6.93,9.03-10.82-4.09Zm71.61,32.23l-6.93-3.47-.42-7.56,3.15-2.52,4.2,13.55Zm-71.93-129.89l35.18,9.35,29.61-7.46-13.02,18.69,8.29,3.78-1.36,20.79-7.24-9.97-21.21-3.89-.73,13.23v2.1l14.28,3.05,13.86,17.43-8.72,3.15,8.4,7.25-7.35,9.76-11.44-8.71-1.05-1.37,1.47-4.94-8.4-17.32-12.81,3.15-7.35-7.66,2.1-8.3-17.01-12.49,6.3-4.93,4.1,3.89,9.77-3.89-5.88-11.13-9.77-13.54Zm453.6,187.43l-13.23,1.37,2.84,7.66,5.14,4.51,9.03,19.42,7.66,2.1-6.2-13.23,3.05-3.78-8.3-18.06Zm0-20.48l-10.08,1.37-3.47-13.97h-1.05l-10.08-3.05-10.08-28.87,4.2-.63,7.98,18.06,6.62.63,15.96,26.46Zm-162.12,52.08l-12.6-5.57-.32-1.78-5.88-19.42,5.88-2.1,6.3,15.33,6.93,1.99-.32,11.55Zm175.88-131.25l34.55,38.22,48.2,14.81,16.59,25.94,3.78,33.29,38.85,14.8h24.05l44.52,20.48,14.8,33.28,31.5,25.93,37.06,48.2v5.46l-8.61-4.51-6.93,5.88-2.84-8.61-1.05-.73-6.93-3.15-.74-1.36v-12.49l-12.49-11.45-3.04-12.49-9.77-8.4-5.56,13.23-9.03-6.62v-1.05l.31-12.49-11.45-5.88-1.05-12.81-9.03,3.78-11.13-15.96-15.23,12.49,7.66,15.23-2.41,3.88v9.03l-10.81-3.88.31-11.03-17.64-5.25-7.66-21.84v-1.78l-11.44,5.25,7.98,15.54-3.47,11.55-3.89,9.03,5.25,10.71.31,2.1,7.66-2.42,4.52,7.67h6.61l-.31-7.35,12.49.31,2.42,15.65v2.42l-19.85-1.68,2.84,10.08.32,7.67,6.61,7.98,11.44,5.88,4.83,8.3-3.78,4.2-6.93-10.82-9.03-.63-6.61-9.03v-1.37l-3.78-7.66-.73-2.1-10.39-1.36-10.39-23.94-23-11.13-.31-6.3,14.91,4.51v-8.71l10.81-5.46-.42-6.3h-9.66l-9.77-13.54-10.39-5.88-12.18,4.09-9.35-5.14-6.3,6.19-21.11-11.76,5.88-5.88,7.98,4.83,12.81-7.24,5.88-5.25c.74-.74,1.47-1.37,2.1-2.1l15.64,6.93,13.86,3.47,1.05-7.25v-1.37l-4.1-7.35-18.79-1.37c-2-1.99-2.1-2.31-3.15-4.83l-4.51-4.94-1.36-1.36-12.18-4.2-3.47-13.54,8.72-4.52-8.3-24.25-5.57-3.47-10.81-18.8-22.57-12.81,4.83,14.91-7.56,3.78.31,19.53,4.83,12.81-5.57,8.3,8.71,17.01-1.68,8.72c0-.84-3.78-4.73-4.52-6.62l-5.56,1.05-4.94-19.42v-2.73l-19.42-12.91-.32-1.05v-6.19l14.18,7.98,5.56-19.42c-.53-1.89-.63-1.05-.63-2.83l-5.98-8.72-7.24-1.68-8.3-29.51-5.99-7.98,3.15-19.63,2.31,1.26Zm-221.02,106.57l-12.91-8.4,1.05-16.27-14.17-12.18,4.09-13.55,5.88,9.45,5.25-2.1-14.6-26.46,4.51-11.45,4.83,15.33,11.13,4.1,3.47,21.53-4.51,13.97,5.98,26.04Zm136.4,124.85l-10.71-1.05v-8.4l-8.72-9.34,6.93-7.24.42-8.4,4.83-4.52,10.08,27.51-4.2,3.78,1.37,7.67Zm-18.17-52.61l-5.46-4.93-1.47-10.71,4.62-6.93,3.36,9.87-3.89,2.41,4.73,8.19-1.89,2.1Zm78.65,145l20.16,14.91,8.3-5.57-13.23-8.4-1.36-13.86-18.06-.63-7.67-23.63,2.1-9.03-10.39-19.53h-15.96l-10.4-38.85,9.66-3.47,1.36-15.33-16.59-17.33-2.84-18.79,15.33-1.37-2.84-15.22-9.66,1.37-8.4-26.36-11.76-6.3.63,8.3,7.03,4.93,2.73,14.6-6.93,5.88-9.34-13.86-9.45-.42-6.61-5.88-13.86,1.78-15.96-16.38-4.83-20.16-10.81-.63v8.29l11.86,26.35.63,13.55,8.71,7.35,1.36,18.38,9.34,29.92,4.52,9.03,1.05,11.76,7.98,4.83,7.03,13.23-4.2,3.47-6.61-6.2-7.98-2.1-4.83-10.08-23.62-2.83-8.4-19.43,5.99-.32-1.47-10.39-12.81-4.51-9.34-10.08-5.25,5.15,10.81,16.69-1.47,19.42,9.03,13.55,7.03,34.44,15.22,2.73,9.03,20.89-2.41,17.33,5.56,7.66,4.52,13.12,11.76.42,7.98,19.11,15.33,9.35,3.78,19.11h8.72l-3.15-17.01-11.13-12.92-1.36-15.96,10.82-5.88-6.61-18.06-14.6-11.76,5.56-18.06,9.35,4.83,4.52-10.82-11.76-20.79,9.35-4.51,1.05.32,13.23,25.72,8.3,11.45,7.66,13.23,7.35-6.3,8.3,19.11,23.94,17.43Zm-235.83-498.64l111.19,31.5,99.96,127.78-7.66,12.39,4.83,15.23-7.56,11.86-4.93-12.49c0-2.41.21-1.57-.63-4.2l-11.86-9.03-12.49-23.62-7.66-3.47-3.47-2.84-5.56-14.49-13.12-7.66v-13.86l-17.43-22.26-2,.63-.73,27.09,11.13,12.6,7.66,15.96-15.33,10.39-6.93-28.45-2.1-.74-11.13-1.36,2.84,22.15,14.39,10.29,15.43,18.27,27.83,1.37,6.19,20.79v2.83l5.56,28.45,14.6,15.33-6.19,15.96-11.87-13.23-17.32-14.59,8.3-3.47,2.1-.73-11.86-34.02-2.73-5.57-20.16,9.77,3.46,12.49-4.09,9.77,11.02,11.02-8.3,7.03v10.4l15.33-6.3,9.03,15.33-13.23,6.93,6.2,14.6h-12.5l-13.12-11.87v-1.99l-2.83-14.59-11.76-9.77-1.36-16.69,11.02-9.66-15.96-22.99-15.23-1.99-11.13-18.06-15.33,6.93,7.66,14.59,4.83,15.22-10.4-4.83-9.66-11.87-12.49-5.46-4.2-26.46-15.33-17.32v-12.5l8.4-6.93-2.84-15.33h13.23l15.23,11.86,15.33-2.1-8.29-24.36,6.93-15.22-13.97-19.53-11.03,1.47-8.4-9.77-10.4-19.43h-11.76l-15.33-27.19Zm27.4,736.68l-23.62-5.57-1.36-6.93-13.55-8.71h8.72l8.3,6.93h1.05l10.4-1.36,3.15,6.93,8.4,2.41-1.47,6.3Zm-95.13-62.16l-20.79,3.04-3.15-5.56-12.18,1.78,6.3,4.83,20.05,5.25,1.79,9.34,10.39,2.84-4.09-10.81,10.39,2.1-3.15-10.81-5.56-1.99Zm-60.06,25.62l-11.86-6.93-2.73-12.49-9.35.73-.42-8.71,18.79,5.25,2.42,7.56,1.36.74,7.98,3.46-6.2,10.39Zm-221.86-178.08l24.99,19.43h2.1l19.43,2.73,24.99,11.87,18.06,3.46,11.76,4.2,9.76,13.86,9.03,5.57,17.32,11.13,5.57,4.09,6.3,6.3,3.47,13.23-28.46-12.6v7.66l-14.6-4.83-13.97-8.3-7.56,6.93,24.99,7.56,11.13,9.76,25.62-2.73,6.3,2.73,12.5,12.5,6.93-1.36,7.66-.73,11.13,5.56,12.49.73v-6.93l-19.53-4.2-6.93-9.76-16.59-3.47-4.2-7.56-4.83-9.77-7.03-4.83,18.06,1.99-1.99-7.56-19.53-4.2-9.66-9.03-13.23-4.83-14.6-13.23-13.86-5.56-2.84-.63-24.99-9.76-6.19,3.46-13.97-6.3h-18.69l-5.56-9.03,8.29-1.36-14.6-6.93-5.46,1.36-4.94-2.73-4.09,2.1Zm-470.3,1.57l-1.68-1.26,1.05-4.52-2.84-9.34-4.83-14.28,3.47-3.25,4.2,10.6,8.61,3.47.42.63,8.51,16.7-5.57,1.57v8.82l-5.77-.1-5.57-9.03Zm55.97,53.87l-4.2-4.41,4.94-3.15-2.52-4.2,2.84-4.51-6.3-20.48,9.45-2.1,2.41,18.79,8.3,6.3v1.37l3.47,10.08,7.66,3.46-.31,8.3,10.08,7.35,3.47-2.84,5.14,5.57v1.37l-1.15,2.62,12.7,7.25.94,10.19-34.23-19.43-15.75,7.45.94,24.05,25.83,10.19,11.13,21.31,19.43,2.73,15.75,23.2v4.62l19.53,9.24-13.02,6.51-19.43-3.67-14.81,10.18,11.97,21.21,21.32,3.78,27.82,29.61,30.55,37.9-13.86.95-28.77-49.98-25.94,4.62-11.13-12.07-3.68-5.46-31.5-12.08v-4.62l-34.23-34.34c-3.47-5.77-2.94-7.35-8.3-7.35l-19.53,4.62-2.73.95,8.3,14.8,13.97,20.37,4.62-4.62,18.48,6.51-12.91,16.59-33.39,2.84-6.51-.95-36.96-5.56-17.64-18.48-3.67-2.84-31.5-3.67-6.51-14.8,21.31,3.67-9.24-25.94c-.84-.21-3.78-3.78-4.62-4.62l-4.62-6.51c-2.1-.52-2.41-2.94-6.51-4.62l-10.18-1.78h-34.23l-21.31-18.59-23.21-3.68-27.72-17.64-2.84-.84-1.78-10.18,31.39,13.86v-9.24l-7.35-13.97-5.57-10.18c0-3.57,0-1.26-1.89-5.57l-12.91-6.41-36.12-26.88-18.48-2.83v-10.19l32.34,3.78,24.99,15.75h22.26l17.64,10.18,8.3-.95,21.32,14.81,27.72,10.18-3.67-7.45v-3.68l-17.54-18.48-14.91-10.18-24.05-12.07-11.13-22.26-11.97-22.16-21.32-10.18-3.78-13.97-21.21-11.03-9.35-.94-20.37-21.31,16.7-3.68,22.26,23.1,29.61,7.45,19.42,23.1,28.77,8.4,11.13,24.99,18.48,1.79,23.1,23.2,56.49,16.69,5.78-3.04-2.31-4.52,5.57-4.2-3.47-6.3,1.36-9.03,6.93,10.81,15.96-3.46,3.15,2.41,7.77-3.99,9.77,6.4,4.31-1.68,7.35,3.05-3.67,3.99,4.51,3.04,3.68,5.56,4.41,1.99,2.84-3.47h2.41l6.3,1.05-1.78,6.93,13.23,6.19Zm-351.22,74.76l-4.94,7.66-7.98-10.08-10.4,2.41,11.76,24.99,17.01,6.3,7.35,7.56,5.25.42-11.55-16.69,3.89-4.83-5.25-5.99,4.83-5.88-9.97-5.88Zm-111.3-64.26l-8.19.52-3.15-5.25-2.1,1.47,6.83,9.66,7.98,2.31.32.63,5.77,9.24h6.09l-4.73-4.52,5.04-2.42-1.78-5.88-6.19-.73-5.88-5.04Zm-75.7-79.48l-1.57,4.09v.52l5.56,10.29,6.19,5.14.74,3.36,2.94-.73v-.53l-.52-7.24-6.09-.84-.21-6.3,4.52-.73-4.83-12.5-8.5-1.89,1.78,7.35Zm389.97,94.71l-5.56-4.51.31-9.98,12.5,6.93,5.88,19.74-6.19-.63-2.1-9.45-4.83-2.1Zm153.83,59.74l-10.82,1.47-4.51-9.03,6.93,4.83,9.45-4.2,11.03,12.5-4.1,4.2-5.88-8.72-2.1-1.05Zm-44.84-35.07l-3.78-7.25,3.46-9.76-4.51-9.35h2.73l18.48,34.02-11.55-12.18-4.83,4.51Zm-69.4,22.26l13.54,7.25,5.88,9.45,23.94,5.57,5.88,11.76,3.88-3.15-6.3-19.42-15.65,4.51-6.61-6.61,1.47-10.71-14.59-14.59,1.05,15.23-12.49.73Zm-71.19-20.79l17.01,14.49,15.64,2.52,3.47,6.19,10.4.32-9.03-16.59-12.18-4.2-16.7-21.84-14.59-.74-11.76-15.96-9.03,2.41,1.36-.32,11.44,18.06,12.18,2.41,1.78,13.23Zm-189-150.46l-4.83-2.31.42-5.77c1.78-.42,1.89-.31,3.78-.31l3.15-.84v.63l.73,6.3-3.26,2.31Zm-29.19,17.32l-4.83.53v-5.36h.74l2.94,1.58,1.16,3.25Zm-41.9-19.21l-12.28-1.89v-.84l-1.36-5.35h.94l8.61-.42,4.1,8.5Zm9.24-43.78l2.41-7.88-4.93-7.14.73-5.98h1.15l.95.95,5.98,10.81h1.57l9.03,4.2v.63l-2,14.18-7.88-5.99-.31,3.25-6.72-7.03Zm52.82,30.55l-9.24-2.73v-.94l.42-9.98,4.2-3.67,4.83,10.18-.21,7.14Zm-225.75,15.33l-2.94-6.3,2.1-2.73,3.68,4.83-2.84,4.2Zm-33.7-37.06l.21,6.3,5.56,8.5,2.31-1.15-1.16-8.3-6.93-5.35Zm5.25-31.92l13.02,21.31,6.4-3.78v-4.62l-8.29-26.77,2.83-20.37c-3.99-1.68-3.46-2.63-7.45-4.73l-19.42-17.53-9.24,5.57,1.79,2.73,18.58,14.8-1.89,20.37,3.68,13.02Zm-12.91,160.23l-21.32-3.78-7.45-28.67,9.35-4.62-8.4-26.88,5.57-11.13,15.75,45.36,14.81,6.51.94,5.57,7.45,14.81-16.69,2.83Zm88.83,62.9l-16.59-10.19-10.19,1.89,10.19,21.32,21.31,3.68,21.21,30.55,8.4.94-14.81-19.42,11.02-10.18-10.18-25.94-20.37,7.35Zm163.9-31.4l-23.1-17.64-43.57-3.68-13.86-16.69-35.18-12.07-6.51-14.81-9.24-1.78-1.89,9.24,23.2,23.1-22.26,1.89-7.35-15.75-15.75-9.24v-11.13l-11.13-20.37-2.73-13.13,5.35.84,4.31,6.41,4.2-.32-5.77-9.87,3.15-3.88-1.36-5.67-4.2-10.08,6.09-6.41,7.25,14.39,4.2-5.36-8.72-14.07-6.4-.21-6.41-8.3,1.05-6.4-10.18-12.08-6.51-14.8,6.51-11.13,12.07,21.32h4.62l16.59,6.51,13.02,29.61,3.68.94,12.07,5.57,7.35,8.3-12.91,6.51,12.91,24.04,22.26,13.02,21.31,24.05h16.69l22.16,8.3-4.62-14.81,2.84-9.24-6.51-14.81,3.68-14.8,16.69,35.18-5.57,14.8,24.99,27.83,12.07-.94,28.66,45.36-8.3,5.57-13.86-22.26-7.45,3.78-17.64-14.8Zm127.89-171.36l-17.64-19.42-5.56-15.75-7.35-15.75,10.18,3.68,18.48,28.77,13.86,8.3,14.81,21.31-26.77-11.13Zm74.02-.94l15.75,13.02,17.64,10.19,8.3,27.72,30.55,24.99v2.84l14.81,21.31,5.56-4.62-12.07-18.59-1.78-19.43-16.69-4.62-4.62-17.64,17.64-7.35,18.48,20.37,10.18-3.78-22.26-17.54-32.34-8.3-3.78-13.02-20.37-10.19-23.1-14.8-19.43,3.67,24.99,9.24-7.45,6.51Zm837.16,339.89l-44.41-13.97-26.88-20.37-14.8-7.35-18.59-20.37-5.56-16.69,23.2,21.31,15.75,5.57,16.7,17.53,18.48,16.7,13.86,2.83,22.26,14.81Zm-162.96-70.35l-6.09-12.07-6.93-3.68-13.44-20.89,1.89-7.88,4.62,13.44,10.61,1.89,10.71,21.74-1.36,7.45Zm-212.1,7.35l1.89,6.93,6.93,5.15.94-7.46-8.82-13.44-.95,8.82Zm58.8-23.62l15.75,13.86,6.51-1.78,9.66,15.75,8.4,4.09,6.4,11.66,3.26-.95-5.99-19.01-1.89-.95-10.61-5.98-10.71-24.05-23.1-14.39-5.99-13.02h-3.78l13.97,25.93-1.89,8.82Zm-175.03-98.59l2.31,12.91,6.51,2.84,12.91,27.3-4.09,7.45,1.36,8.3,7.88,9.24,3.26,11.55,7.35,6.09-2.73-13.02-8.82-14.28,5.56-5.57,9.24,5.04v-12.08l-10.6-8.71-10.71-8.4-1.36-10.6v-7.88l-11.13-9.24-6.93-.94Zm139.86-48.61l-12.49-4.2-4.62-20.79,4.62-5.15,2.31,12.08,5.56,2.31,4.62,15.75Zm35.18,46.3l-4.62,4.62,4.2,13.44,15.23,2.31,5.14,13.86,5.04,1.89-7.35-22.26-8.82-3.67-.53-1.37-4.62-19.95-11.97-2.73,8.3,13.86Zm-.94-51.87l20.37,17.11,12.49-1.89,14.39,15.33,17.64,12.07,5.04,13.44-6.51,6.4,4.2,11.13,14.81,19.95,3.26,12.92,1.89-5.99-1.89-17.64-8.82-13.86-1.78-15.75-6.09-14.8-10.19-5.99-4.09-13.44-12.6-.52-4.1-9.24-16.28-.42-6.93-9.24-14.81.42Zm-36.75-107.2l-1.16,13.65-12.6-10.81-10.6,1.57-10.92-11.76-3.15,6.19,10.4,15.02,1.78,14.18,9.98,9.24,9.24,24.36,3.99-3.25-2.1-9.77,6.72-1.37.42-8.61,12.07,14.81,14.18,3.99,3.89,11.34,9.03,5.04v1.47l5.78,9.98,3.05-1.26-3.05-6.4v-6.51l-8.3-9.24-5.78-1.68-4.93-14.59-8.09-2.94-8.51-14.59,1.37-9.03,6.93,11.55,7.88,4.2-4.62-11.13-4.83-.21-2.62-12.49-8.72-1.16-2.62-7.88-4.1-1.89Zm-174.09-60.9l9.24,6.93,2.31,10.71.42,8.3v8.4l7.45,5.04.42,7.87,6.51,5.98,5.04-4.62,5.14,4.62.94,10.71,8.3,8.3,5.57,16.17-6.51,1.47-5.98-6.93h-4.2l-6.93-9.35h-3.26l-9.24-13.44-9.24-.42-12.49-13.86-5.56-.52,7.88,17.64,11.55,4.62,5.14,8.82,1.78,13.86.95,11.13,2.31,5.99-3.26,3.25,6.93,16.17h7.88l-3.26-13.86,11.13,9.24,5.15,12.49,15.75,8.4-5.57-16.27-13.44-9.66-2.84-16.17,5.56-5.14,8.4,10.19,3.67-7.35,7.88,8.71v13.97l6.93,9.66.52,3.25,5.46,16.7,16.27,2.73,12.49,19.01,15.75,3.67,9.66-5.04,7.88,11.97-5.98,2.41,7.45,29.61h-7.88l4.62,12.49,9.24,10.61,6.93,11.13,4.62-4.2-6.93-11.02,5.15-9.34-8.82-12.92-7.45-10.19.94-12.07,5.14-2.73-2.41-10.19-6.93-2.31-2.31-10.71-10.6-5.57-7.45.94-4.1-8.82-14.39-1.36-6.51-8.82-7.88-1.36-2.31-15.22,10.18,3.15,7.88,15.33,6.51.42.94-4.62h11.97l2.31,13.96,10.18,4.1-.42-4.1-2.73-3.25-1.47-11.13-11.13-6.51-1.78-14.81,2.73-.42,7.45,11.02,5.98-2.73-5.98-25.93-1.37,12.07-6.09-1.89-3.26-12.5-9.24-1.37-7.35,13.44-12.07-9.76-3.26-15.75-9.66-4.62-.94-9.24,6.41-3.25,6.51,11.55,5.57-1.36,6.93,9.24,3.78.53-7.03-20.89-5.99-1.37-10.18-15.75-8.3,4.2.42,9.66-10.19-4.09-.42-11.66-9.77-2.73,7.45-14.8-6.09-13.86-12.49.84-.42,2.31,5.04,13.02h-11.55l-4.2-10.19,1.89-1.89-3.68-12.49-6.09,5.98-1.79-11.97-13.86-8.4v8.82Zm-677.88-49.98v5.56l2.52,5.77,2.31-4.41-1.15-5.57-3.68-1.36Zm-32.02-29.82l7.45,3.47,2.52,10.81.95-12.28-6.3-8.72-4.62,6.72Zm61.43-9.03l-3.78,8.09,5.57,8.5v.74l1.68,8.82,3.68-9.56-4.2-5.56,3.05-6.72-5.98-4.31Zm-68.25-93.34l-2.94-5.46-6.09-3.15-1.15-7.56,3.89,2.2,5.56.21.84,9.03-.1,4.73Zm36.96,74.44l-6.3,4.62-7.35-3.99-3.26-19.21-9.45-7.14-7.03-28.04,7.14,15.12,4.93,1.57.21,5.57,7.66,13.86,12.28.53-3.47,8.29,10.61,7.14,4.41,24.78-10.39-23.1Zm76.86-72.97l-8.82-7.56-2.73-11.66-8.4-4.83-6.2-28.67,6.72,13.13v.73l2.73,12.28,9.76-.52,1.89,13.44,3.47,3.25,1.57,10.4Zm185.85,105.63l6.72,14.81,12.07,6.19-4.41-14.8-5.56,1.89-2.52-7.46-6.3-.63Zm-105.32-13.96l7.45,14.38,11.55,5.15,6.51,10.6,8.3,4.2-8.3-20.37-13.02-3.25-1.78-11.13-10.71.42Zm53.76,38.95l3.26,15.75,11.97,7.88.95,1.36,8.4,14.39.42,1.36,13.44,11.55-13.44-23.62h6.51l-7.88-17.54-11.65-.52-5.99-7.35-5.98-3.26Zm199.5-8.82l8.61,10.4,6.72,1.89.21.94,2.84,10.81,4.83,5.78-4.41-21.73-8.61-4.1-.42-7.03-11.76-2.31,1.99,5.36Zm-26.78-30.97l1.37,9.66,6.72,4.62.94-10.6-9.03-3.68Zm1.16-26.25l7.14,12.28,7.88,3.99-.42-7.88h-6.09l-2.1-7.66-6.4-.73Zm54.81,16.28l.53,12.91-7.88-1.37v9.03l14.28,13.23,8.19,17.53,17.53,6.93-3.68-14.07-11.34-5.57-2.31-8.82,11.34-2.1,8.3,9.56h4.41l-7.14-16.69-12.28-.42-10.4-9.55-5.56-.95-.53-8.72-3.47-.94Zm-359.41-171.26l63,14.8,33.28,49.98,2.62,21-28.77-27.72,9.24,26.77,22.26,16.69v21.31l19.43,18.48.94-19.42,23.2.94,13.86,38.01-7.45,11.02,12.08,40.74-24.05-22.15-1.89-15.75-36.12-20.37-8.3-25.93-21.31-3.67-21.32-16.69-11.13.94-10.18-26.88-17.53-11.13-11.13-33.29,36.96,10.19-9.24-26.88-20.37-5.56-8.09-15.44Zm177.77,75.91l31.5,31.5,33.39,12.92,25.93,18.59,7.14,11.76-14.81-.95,6.51,10.18,13.86,9.24,12.91,27.82-22.15-6.51,7.35,18.48,24.99,8.4,16.69,28.66,28.77,5.57,23.1,32.45-5.56,11.97,9.24,23.2-25.94-12.07-21.21-24.05-17.64-8.4-22.26-32.34-26.77-12.08,5.56,34.23-31.5-28.66-11.13-35.17-13.86-10.19-11.13-19.43-20.37-13.02-15.75-25.94,32.34,18.59-12.91-37.07-9.24-15.75,2.94-21.95Zm198.24,24.05l29.61,3.68,16.48,45.15-10.19,28.66,37.91,44.52-6.51,22.15-18.48-35.17-10.18-6.51-18.48-32.34-15.75-12.07-1.89-12.92,16.69,2.73-19.22-47.88Zm53.66-20.37l48.19,1.89,44.41,57.44,37.06,20.37,29.61,36.96,70.45,48.19,17.64,21.21,12.08,4.62,15.22,16.69,29.19,14.81-1.37,7.87-9.24-6.4-8.82,5.04-10.19-7.35-11.55-7.03-9.76.94-13.44-18.06-15.75-12.91h-18.9l-5.15-6.51-19.95.42-6.4-12.91-19.95-1.89-14.39-24.99,15.33,2.84-5.56-16.28-14.39-5.57-5.99-23.1-7.45-3.26-4.62-13.86-19.43-6.51,2.84,12.07,6.93,1.78,8.72,22.26-8.3,3.68,13.86,36.65,10.19,7.88,5.14,27.3,12.08,10.19,1.36,19.42-11.13-11.13-7.88-21.73-22.68-19.01,9.77-5.04-5.56-23.62-14.39-10.71-6.93-25.94-8.4-2.31-7.35-23.62-24.05-5.04,6.4,18.06,10.19-1.89,10.71,30.55v20.9l-14.39-6.09,1.36,20.37,21.74,9.35-7.77,7.35,11.03,21.31,13.97,3.68,3.26,18.06,11.55,6.51,7.35,27.83h-17.11l5.56,16.59,6.93,13.02,9.76-.95,7.35,9.24,11.65,25.51,9.24,10.19-3.67,15.75,12.91,12.5-1.37,16.59-12.49-22.15-13.02-11.55-.94-16.27-18.48-1.36-7.45-9.77-18.48-.84-4.62-12.08-9.24-2.31-6.51-23.21,7.46,4.2,8.71-4.62,4.2,7.35,9.24.95-4.94-26.57-17.64-8.4-.42-34.65-19.95-13.02-3.25,20.89-8.61,5.15-1.99,17.54,15.23,20.37-12.91,7.88-5.99-10.71-17.64,8.4-7.35-17.64,13.86-20.79-15.75-24.15.42-14.28,28.24,28.66,3.26-30.97.53-3.78-11.13-18.06-4.62-14.28,18.48,5.99-1.36-31.5-14.81-7.88-11.13-30.97,8.3-9.35-2.73-19.42-18.59-11.97-13.65-34.96Z"/>
      </g>
      <rect class="cls-5" x=".68" width="4200" height="2940"/>
    </g>
  </g>
</svg>