<?xml version="1.0" encoding="UTF-8"?>
<svg id="Layer_2" data-name="Layer 2" xmlns="http://www.w3.org/2000/svg" viewBox="0 0 4200 2940">
  <defs>
    <style>
      .cls-1 {
        fill: #fff;
        fill-rule: evenodd;
      }

      .cls-2 {
        fill: none;
      }
    </style>
  </defs>
  <g id="Layer_1-2" data-name="Layer 1">
    <g id="STARS_Group_" data-name="STARS &amp;lt;Group&amp;gt;">
      <path class="cls-1" d="m1340.85,152.15c3.47,0,6.19-2.84,6.19-6.19s-2.73-6.3-6.19-6.3-6.3,2.84-6.3,6.3,2.84,6.19,6.3,6.19h0Z"/>
      <path class="cls-1" d="m3759.63,43.26c2.31,0,4.09-1.89,4.09-4.2s-1.78-4.1-4.09-4.1-4.1,1.89-4.1,4.1,1.78,4.2,4.1,4.2h0Z"/>
      <path class="cls-1" d="m2114.6,46.52c2.2,0,4.09-1.89,4.09-4.09s-1.89-4.1-4.09-4.1-4.1,1.79-4.1,4.1,1.78,4.09,4.1,4.09h0Z"/>
      <path class="cls-1" d="m1870.47,89.57c2.31,0,4.2-1.89,4.2-4.2s-1.89-4.09-4.2-4.09-4.1,1.89-4.1,4.09,1.89,4.2,4.1,4.2h0Z"/>
      <path class="cls-1" d="m1419.81,374.12c2.21,0,4.1-1.89,4.1-4.2s-1.89-4.1-4.1-4.1-4.09,1.89-4.09,4.1,1.78,4.2,4.09,4.2h0Z"/>
      <path class="cls-1" d="m1064.18,196.25c2.31,0,4.1-1.78,4.1-4.1s-1.79-4.09-4.1-4.09-4.1,1.89-4.1,4.09,1.89,4.1,4.1,4.1h0Z"/>
      <path class="cls-1" d="m1019.76,351.86c2.2,0,4.09-1.89,4.09-4.1s-1.89-4.1-4.09-4.1-4.1,1.79-4.1,4.1,1.78,4.1,4.1,4.1h0Z"/>
      <path class="cls-1" d="m1055.78,380c1.78,0,3.15-1.37,3.15-3.15,0-1.68-1.37-3.15-3.15-3.15-1.68,0-3.15,1.47-3.15,3.15,0,1.78,1.47,3.15,3.15,3.15h0Z"/>
      <path class="cls-1" d="m1120.25,284.86c1.68,0,3.15-1.36,3.15-3.15,0-1.68-1.47-3.15-3.15-3.15-1.79,0-3.15,1.47-3.15,3.15,0,1.78,1.36,3.15,3.15,3.15h0Z"/>
      <path class="cls-1" d="m1374.87,305.24c1.78,0,3.15-1.36,3.15-3.15,0-1.68-1.37-3.15-3.15-3.15-1.68,0-3.15,1.47-3.15,3.15,0,1.78,1.47,3.15,3.15,3.15h0Z"/>
      <path class="cls-1" d="m1416.14,179.86c1.78,0,3.15-1.47,3.15-3.15,0-1.78-1.36-3.15-3.15-3.15-1.68,0-3.15,1.37-3.15,3.15,0,1.68,1.47,3.15,3.15,3.15h0Z"/>
      <path class="cls-1" d="m1664.35,83.58c1.79,0,3.15-1.47,3.15-3.15,0-1.78-1.36-3.15-3.15-3.15-1.68,0-3.15,1.37-3.15,3.15,0,1.68,1.47,3.15,3.15,3.15h0Z"/>
      <path class="cls-1" d="m1827.32,209.48c1.78,0,3.15-1.37,3.15-3.15,0-1.68-1.36-3.15-3.15-3.15-1.68,0-3.15,1.47-3.15,3.15,0,1.78,1.47,3.15,3.15,3.15h0Z"/>
      <path class="cls-1" d="m1834.77,320.56c1.68,0,3.15-1.37,3.15-3.15,0-1.68-1.47-3.15-3.15-3.15-1.78,0-3.15,1.47-3.15,3.15,0,1.78,1.37,3.15,3.15,3.15h0Z"/>
      <path class="cls-1" d="m1932.1,414.02c1.68,0,3.15-1.36,3.15-3.15,0-1.68-1.47-3.15-3.15-3.15-1.78,0-3.15,1.47-3.15,3.15,0,1.79,1.37,3.15,3.15,3.15h0Z"/>
      <path class="cls-1" d="m1888.22,488.67c1.68,0,3.15-1.47,3.15-3.15,0-1.78-1.47-3.15-3.15-3.15-1.78,0-3.15,1.37-3.15,3.15,0,1.68,1.36,3.15,3.15,3.15h0Z"/>
      <path class="cls-1" d="m2273.46,118.23c1.68,0,3.15-1.37,3.15-3.15,0-1.68-1.47-3.15-3.15-3.15-1.78,0-3.15,1.47-3.15,3.15,0,1.78,1.37,3.15,3.15,3.15h0Z"/>
      <path class="cls-1" d="m637.03,188.37c3.36,0,6.19-2.84,6.19-6.19s-2.83-6.3-6.19-6.3-6.3,2.83-6.3,6.3,2.84,6.19,6.3,6.19h0Z"/>
      <path class="cls-1" d="m123.69,121.7c3.47,0,6.3-2.84,6.3-6.19s-2.84-6.3-6.3-6.3-6.19,2.83-6.19,6.3,2.84,6.19,6.19,6.19h0Z"/>
      <path class="cls-1" d="m1386.42,570.99c2.2,0,4.1-1.79,4.1-4.1s-1.89-4.1-4.1-4.1-4.1,1.89-4.1,4.1,1.79,4.1,4.1,4.1h0Z"/>
      <path class="cls-1" d="m987.73,503.05c2.31,0,4.1-1.89,4.1-4.2s-1.78-4.1-4.1-4.1-4.09,1.89-4.09,4.1,1.79,4.2,4.09,4.2h0Z"/>
      <path class="cls-1" d="m707.18,697.52c2.2,0,4.1-1.89,4.1-4.2s-1.89-4.1-4.1-4.1-4.2,1.89-4.2,4.1,1.89,4.2,4.2,4.2h0Z"/>
      <path class="cls-1" d="m2243.43,318.26c2.31,0,4.1-1.79,4.1-4.1s-1.78-4.1-4.1-4.1-4.09,1.78-4.09,4.1,1.89,4.1,4.09,4.1h0Z"/>
      <path class="cls-1" d="m2426.76,232.15c2.31,0,4.2-1.89,4.2-4.09s-1.89-4.09-4.2-4.09-4.1,1.78-4.1,4.09,1.89,4.09,4.1,4.09h0Z"/>
      <path class="cls-1" d="m3071.15,263.13c1.68,0,3.15-1.37,3.15-3.15,0-1.68-1.47-3.15-3.15-3.15-1.78,0-3.15,1.47-3.15,3.15,0,1.78,1.37,3.15,3.15,3.15h0Z"/>
      <path class="cls-1" d="m2990.72,121.06c1.78,0,3.15-1.47,3.15-3.15,0-1.78-1.37-3.15-3.15-3.15-1.68,0-3.15,1.37-3.15,3.15,0,1.68,1.47,3.15,3.15,3.15h0Z"/>
      <path class="cls-1" d="m2704.59,160.65c1.78,0,3.15-1.37,3.15-3.15,0-1.68-1.36-3.15-3.15-3.15-1.68,0-3.15,1.47-3.15,3.15,0,1.78,1.47,3.15,3.15,3.15h0Z"/>
      <path class="cls-1" d="m879.06,221.45c1.68,0,3.15-1.47,3.15-3.15,0-1.78-1.47-3.15-3.15-3.15-1.79,0-3.15,1.37-3.15,3.15,0,1.68,1.36,3.15,3.15,3.15h0Z"/>
      <path class="cls-1" d="m1641.68,543.48c1.68,0,3.15-1.37,3.15-3.15,0-1.68-1.47-3.15-3.15-3.15-1.78,0-3.15,1.47-3.15,3.15,0,1.78,1.37,3.15,3.15,3.15h0Z"/>
      <path class="cls-1" d="m201.49,71.71c1.78,0,3.15-1.36,3.15-3.15,0-1.68-1.37-3.15-3.15-3.15-1.68,0-3.15,1.47-3.15,3.15,0,1.79,1.47,3.15,3.15,3.15h0Z"/>
      <path class="cls-1" d="m429.35,141.23c1.68,0,3.15-1.47,3.15-3.15,0-1.79-1.47-3.15-3.15-3.15-1.78,0-3.15,1.36-3.15,3.15,0,1.68,1.37,3.15,3.15,3.15h0Z"/>
      <path class="cls-1" d="m1225.98,81.06c1.79,0,3.15-1.36,3.15-3.15,0-1.68-1.36-3.15-3.15-3.15-1.68,0-3.15,1.47-3.15,3.15,0,1.79,1.47,3.15,3.15,3.15h0Z"/>
      <path class="cls-1" d="m2090.66,278.04c1.78,0,3.15-1.47,3.15-3.15,0-1.79-1.37-3.15-3.15-3.15s-3.15,1.36-3.15,3.15c0,1.68,1.37,3.15,3.15,3.15h0Z"/>
      <path class="cls-1" d="m1544.76,264.7c-.84,1.47,216.19,128.31,221.76,131.57,5.56,3.15,10.81,4.62,11.66,3.15.73-1.37-3.05-5.15-8.61-8.4-5.57-3.15-223.97-127.68-224.81-126.32h0Z"/>
      <path class="cls-1" d="m988.05,102.48c1.79,0,3.15-1.37,3.15-3.15,0-1.68-1.36-3.15-3.15-3.15-1.68,0-3.15,1.47-3.15,3.15,0,1.78,1.47,3.15,3.15,3.15h0Z"/>
      <path class="cls-1" d="m1260.21,566.48c2.2,0,4.09-1.78,4.09-4.09s-1.89-4.1-4.09-4.1-4.1,1.78-4.1,4.1,1.78,4.09,4.1,4.09h0Z"/>
      <path class="cls-1" d="m3933.93,105.74c1.79,0,3.15-1.37,3.15-3.15,0-1.68-1.37-3.15-3.15-3.15-1.68,0-3.15,1.47-3.15,3.15,0,1.79,1.47,3.15,3.15,3.15h0Z"/>
      <path class="cls-1" d="m3883.95,161.28c1.68,0,3.15-1.36,3.15-3.15,0-1.68-1.47-3.15-3.15-3.15-1.78,0-3.15,1.47-3.15,3.15,0,1.79,1.37,3.15,3.15,3.15h0Z"/>
      <path class="cls-1" d="m3878.39,697.52c1.79,0,3.15-1.47,3.15-3.15,0-1.78-1.36-3.15-3.15-3.15s-3.15,1.37-3.15,3.15c0,1.68,1.36,3.15,3.15,3.15h0Z"/>
      <path class="cls-1" d="m3375.54,678.09c1.78,0,3.15-1.47,3.15-3.15,0-1.79-1.37-3.15-3.15-3.15-1.68,0-3.15,1.36-3.15,3.15,0,1.68,1.47,3.15,3.15,3.15h0Z"/>
      <path class="cls-1" d="m4095.1,103.64c3.47,0,6.2-2.73,6.2-6.19s-2.73-6.3-6.2-6.3-6.3,2.84-6.3,6.3,2.84,6.19,6.3,6.19h0Z"/>
      <path class="cls-1" d="m4009,789.81c3.36,0,6.2-2.73,6.2-6.19s-2.84-6.3-6.2-6.3-6.3,2.83-6.3,6.3,2.83,6.19,6.3,6.19h0Z"/>
      <path class="cls-1" d="m3228.33,830.86c3.46,0,6.19-2.84,6.19-6.3s-2.73-6.2-6.19-6.2-6.3,2.73-6.3,6.2,2.84,6.3,6.3,6.3h0Z"/>
      <path class="cls-1" d="m3122.39,78.33c1.68,0,3.15-1.37,3.15-3.15,0-1.68-1.47-3.15-3.15-3.15-1.78,0-3.15,1.47-3.15,3.15,0,1.79,1.37,3.15,3.15,3.15h0Z"/>
      <path class="cls-1" d="m2730.63,89.46c1.78,0,3.15-1.47,3.15-3.15,0-1.78-1.37-3.15-3.15-3.15-1.68,0-3.15,1.37-3.15,3.15,0,1.68,1.47,3.15,3.15,3.15h0Z"/>
      <path class="cls-1" d="m3052.87,731.22c1.79,0,3.15-1.47,3.15-3.15,0-1.79-1.36-3.15-3.15-3.15-1.68,0-3.15,1.36-3.15,3.15,0,1.68,1.47,3.15,3.15,3.15h0Z"/>
      <path class="cls-1" d="m3669.64,831.18c1.79,0,3.15-1.36,3.15-3.15,0-1.68-1.36-3.15-3.15-3.15-1.68,0-3.15,1.47-3.15,3.15,0,1.79,1.47,3.15,3.15,3.15h0Z"/>
      <path class="cls-1" d="m3639.09,156.14c1.78,0,3.15-1.47,3.15-3.15,0-1.78-1.37-3.15-3.15-3.15-1.68,0-3.15,1.36-3.15,3.15,0,1.68,1.47,3.15,3.15,3.15h0Z"/>
      <path class="cls-1" d="m3597.09,348.18c3.46,0,6.3-2.84,6.3-6.3s-2.83-6.19-6.3-6.19-6.2,2.73-6.2,6.19,2.73,6.3,6.2,6.3h0Z"/>
      <path class="cls-1" d="m3372.08,114.76c3.47,0,6.3-2.83,6.3-6.19s-2.83-6.3-6.3-6.3-6.3,2.83-6.3,6.3,2.83,6.19,6.3,6.19h0Z"/>
      <path class="cls-1" d="m2671.93,470.4c3.47,0,6.3-2.84,6.3-6.3s-2.83-6.2-6.3-6.2-6.19,2.73-6.19,6.2,2.84,6.3,6.19,6.3h0Z"/>
      <path class="cls-1" d="m2473.07,461.69c1.68,0,3.15-1.37,3.15-3.15,0-1.68-1.47-3.15-3.15-3.15-1.78,0-3.15,1.47-3.15,3.15,0,1.78,1.37,3.15,3.15,3.15h0Z"/>
      <rect class="cls-2" width="4200" height="2940"/>
    </g>
  </g>
</svg>